<svg width="29" height="28" viewBox="0 0 29 28" fill="none" xmlns="http://www.w3.org/2000/svg">
<path fill-rule="evenodd" clip-rule="evenodd" d="M0 4.25C0 3.12283 0.447767 2.04183 1.2448 1.2448C2.04183 0.447767 3.12283 0 4.25 0H24.0833C25.2105 0 26.2915 0.447767 27.0885 1.2448C27.8856 2.04183 28.3333 3.12283 28.3333 4.25V21.25C28.3333 22.3772 27.8856 23.4582 27.0885 24.2552C26.2915 25.0522 25.2105 25.5 24.0833 25.5H4.25C3.12283 25.5 2.04183 25.0522 1.2448 24.2552C0.447767 23.4582 0 22.3772 0 21.25V4.25ZM4.25 2.83333C3.87428 2.83333 3.51394 2.98259 3.24827 3.24827C2.98259 3.51394 2.83333 3.87428 2.83333 4.25V21.25C2.83333 21.6257 2.98259 21.9861 3.24827 22.2517C3.51394 22.5174 3.87428 22.6667 4.25 22.6667H24.0833C24.4591 22.6667 24.8194 22.5174 25.0851 22.2517C25.3507 21.9861 25.5 21.6257 25.5 21.25V4.25C25.5 3.87428 25.3507 3.51394 25.0851 3.24827C24.8194 2.98259 24.4591 2.83333 24.0833 2.83333H4.25ZM19.8333 5.66667C19.8333 5.29094 19.9826 4.93061 20.2483 4.66493C20.5139 4.39926 20.8743 4.25 21.25 4.25H22.6667C23.0424 4.25 23.4027 4.39926 23.6684 4.66493C23.9341 4.93061 24.0833 5.29094 24.0833 5.66667C24.0833 6.04239 23.9341 6.40272 23.6684 6.6684C23.4027 6.93408 23.0424 7.08333 22.6667 7.08333H21.25C20.8743 7.08333 20.5139 6.93408 20.2483 6.6684C19.9826 6.40272 19.8333 6.04239 19.8333 5.66667ZM9.91667 12.75C9.91667 11.6228 10.3644 10.5418 11.1615 9.7448C11.9585 8.94777 13.0395 8.5 14.1667 8.5C15.2938 8.5 16.3748 8.94777 17.1719 9.7448C17.9689 10.5418 18.4167 11.6228 18.4167 12.75C18.4167 13.8772 17.9689 14.9582 17.1719 15.7552C16.3748 16.5522 15.2938 17 14.1667 17C13.0395 17 11.9585 16.5522 11.1615 15.7552C10.3644 14.9582 9.91667 13.8772 9.91667 12.75ZM14.1667 5.66667C12.2881 5.66667 10.4864 6.41294 9.15799 7.74133C7.82961 9.06971 7.08333 10.8714 7.08333 12.75C7.08333 14.6286 7.82961 16.4303 9.15799 17.7587C10.4864 19.0871 12.2881 19.8333 14.1667 19.8333C16.0453 19.8333 17.847 19.0871 19.1753 17.7587C20.5037 16.4303 21.25 14.6286 21.25 12.75C21.25 10.8714 20.5037 9.06971 19.1753 7.74133C17.847 6.41294 16.0453 5.66667 14.1667 5.66667Z" fill="white"/>
</svg>
