<svg width="31" height="33" viewBox="0 0 31 33" fill="none" xmlns="http://www.w3.org/2000/svg">
<path d="M0.351941 2.78276C0.427004 2.02072 0.823488 1.31152 1.46265 0.795994C2.10181 0.28047 2.9369 -0.00365827 3.80206 3.55692e-05C4.62265 3.55692e-05 5.38124 0.251545 5.97753 0.67234C6.61582 0.236584 7.39946 0.000156196 8.20588 3.55692e-05C9.04471 3.55692e-05 9.81788 0.249933 10.4342 0.67234C11.0514 0.235333 11.819 -0.00189878 12.6097 3.55692e-05C14.3895 3.55692e-05 15.9048 1.18826 16.0598 2.78276C16.213 4.3547 16.4118 6.78595 16.4118 8.86736C16.4119 10.1176 16.0467 11.3466 15.3515 12.4353C14.6563 13.5239 13.6546 14.4353 12.4438 15.0809C12.0389 15.297 11.9332 15.5646 11.9441 15.7033C12.1757 18.8213 12.7647 26.9115 12.7647 28.2094C12.7647 29.2784 12.2844 30.3036 11.4295 31.0595C10.5745 31.8153 9.41496 32.24 8.20588 32.24C6.99681 32.24 5.83725 31.8153 4.98231 31.0595C4.12736 30.3036 3.64706 29.2784 3.64706 28.2094C3.64706 26.9115 4.23606 18.8213 4.46765 15.7033C4.47676 15.563 4.37282 15.297 3.968 15.0809C2.75712 14.4353 1.75551 13.5239 1.06028 12.4353C0.365059 11.3466 -0.000174915 10.1176 6.28426e-08 8.86736C6.28426e-08 6.78757 0.198765 4.3547 0.351941 2.78276ZM11.8529 8.4643C11.8529 8.78499 11.7088 9.09255 11.4524 9.31931C11.1959 9.54608 10.848 9.67348 10.4853 9.67348C10.1226 9.67348 9.77471 9.54608 9.51822 9.31931C9.26174 9.09255 9.11765 8.78499 9.11765 8.4643V3.22452C9.11765 3.01072 9.02159 2.80568 8.8506 2.6545C8.67961 2.50333 8.4477 2.4184 8.20588 2.4184C7.96407 2.4184 7.73216 2.50333 7.56117 2.6545C7.39018 2.80568 7.29412 3.01072 7.29412 3.22452V8.4643C7.29412 8.78499 7.15003 9.09255 6.89354 9.31931C6.63706 9.54608 6.28919 9.67348 5.92647 9.67348C5.56375 9.67348 5.21588 9.54608 4.9594 9.31931C4.70291 9.09255 4.55882 8.78499 4.55882 8.4643V3.08748C4.55882 2.91002 4.47909 2.73984 4.33717 2.61436C4.19525 2.48889 4.00277 2.4184 3.80206 2.4184C3.62185 2.41562 3.44707 2.47299 3.31256 2.57907C3.17805 2.68514 3.09369 2.83213 3.07629 2.99074C2.92494 4.54655 2.73529 6.89236 2.73529 8.86736C2.73529 10.6247 3.79294 12.1628 5.38306 13.0108C6.37688 13.5429 7.29229 14.5586 7.19747 15.8613C6.96041 19.0535 6.38235 27.0147 6.38235 28.211C6.38235 28.6386 6.57447 29.0487 6.91645 29.351C7.25843 29.6534 7.72225 29.8233 8.20588 29.8233C8.68951 29.8233 9.15333 29.6534 9.49531 29.351C9.83729 29.0487 10.0294 28.6386 10.0294 28.211C10.0294 27.0147 9.45135 19.0535 9.21429 15.8613C9.11947 14.5586 10.0349 13.5429 11.0287 13.0108C11.8366 12.5805 12.5049 11.9729 12.9689 11.2469C13.4328 10.5209 13.6765 9.70121 13.6765 8.86736C13.6765 6.89397 13.4868 4.54655 13.3355 2.99074C13.3181 2.83213 13.2337 2.68514 13.0992 2.57907C12.9647 2.47299 12.7899 2.41562 12.6097 2.4184C12.409 2.4184 12.2165 2.48889 12.0746 2.61436C11.9327 2.73984 11.8529 2.91002 11.8529 3.08748V8.4643ZM18.2353 9.27042C18.2353 6.81176 19.34 4.4538 21.3064 2.71527C23.2727 0.976733 25.9397 3.55692e-05 28.7206 3.55692e-05C29.0833 3.55692e-05 29.4312 0.127431 29.6877 0.354196C29.9441 0.580961 30.0882 0.888521 30.0882 1.20922V14.9133C30.0882 15.4259 30.2815 17.9685 30.4985 20.785L30.5076 20.9189C30.7447 23.995 31 27.3404 31 28.2094C31 29.2784 30.5197 30.3036 29.6648 31.0595C28.8098 31.8153 27.6503 32.24 26.4412 32.24C25.2321 32.24 24.0725 31.8153 23.2176 31.0595C22.3627 30.3036 21.8824 29.2784 21.8824 28.2094C21.8824 27.3807 22.1158 23.9998 22.3419 20.8995C22.4549 19.334 22.5698 17.8169 22.6555 16.6916L22.6975 16.1224H21.4265C21.0074 16.1224 20.5924 16.0495 20.2053 15.9077C19.8181 15.7659 19.4663 15.5581 19.17 15.2961C18.8736 15.0341 18.6386 14.723 18.4782 14.3807C18.3178 14.0384 18.2353 13.6715 18.2353 13.301V9.27042ZM25.5258 14.9971L25.4875 15.5033C25.3437 17.3539 25.2045 19.2048 25.0699 21.0559C24.8401 24.2159 24.6176 27.4823 24.6176 28.2094C24.6176 28.637 24.8098 29.0471 25.1517 29.3494C25.4937 29.6518 25.9575 29.8216 26.4412 29.8216C26.9248 29.8216 27.3886 29.6518 27.7306 29.3494C28.0726 29.0471 28.2647 28.637 28.2647 28.2094C28.2647 27.4355 28.0131 24.1369 27.7687 20.9479L27.7559 20.7802C27.5499 18.1055 27.3529 15.5211 27.3529 14.9133V2.5248C25.563 2.80852 23.943 3.63968 22.7762 4.87285C21.6094 6.10602 20.9703 7.66267 20.9706 9.27042V13.301C20.9706 13.5235 21.1748 13.7041 21.4265 13.7041H24.1618C24.3493 13.7041 24.5349 13.7383 24.7069 13.8044C24.8789 13.8705 25.0336 13.9673 25.1616 14.0885C25.2895 14.2098 25.3878 14.353 25.4505 14.5093C25.5131 14.6656 25.5388 14.8317 25.5258 14.9971Z" fill="black" fill-opacity="0.5"/>
</svg>
