<svg width="81" height="81" viewBox="0 0 81 81" fill="none" xmlns="http://www.w3.org/2000/svg">
<path d="M53.3333 24.1666H53.375M3.33331 15.8333C3.33331 12.5181 4.65027 9.33868 6.99448 6.99448C9.33868 4.65027 12.5181 3.33331 15.8333 3.33331H65.8333C69.1485 3.33331 72.3279 4.65027 74.6721 6.99448C77.0164 9.33868 78.3333 12.5181 78.3333 15.8333V65.8333C78.3333 69.1485 77.0164 72.3279 74.6721 74.6721C72.3279 77.0164 69.1485 78.3333 65.8333 78.3333H15.8333C12.5181 78.3333 9.33868 77.0164 6.99448 74.6721C4.65027 72.3279 3.33331 69.1485 3.33331 65.8333V15.8333Z" stroke="#828282" stroke-width="5" stroke-linecap="round" stroke-linejoin="round"/>
<path d="M3.33331 57.5L24.1666 36.6667C28.0333 32.9458 32.8 32.9458 36.6666 36.6667L57.5 57.5" stroke="#828282" stroke-width="5" stroke-linecap="round" stroke-linejoin="round"/>
<path d="M49.1666 49.1666L53.3333 45C57.2 41.2791 61.9666 41.2791 65.8333 45L78.3333 57.5" stroke="#828282" stroke-width="5" stroke-linecap="round" stroke-linejoin="round"/>
</svg>
