<svg width="31" height="34" viewBox="0 0 31 34" fill="none" xmlns="http://www.w3.org/2000/svg">
<path fill-rule="evenodd" clip-rule="evenodd" d="M15.5 0.959961C13.2684 0.959961 11.1282 1.7104 9.55024 3.04618C7.97226 4.38196 7.08577 6.19367 7.08577 8.08275C7.08577 9.97183 7.97226 11.7835 9.55024 13.1193C11.1282 14.4551 13.2684 15.2055 15.5 15.2055C17.7316 15.2055 19.8718 14.4551 21.4498 13.1193C23.0277 11.7835 23.9142 9.97183 23.9142 8.08275C23.9142 6.19367 23.0277 4.38196 21.4498 3.04618C19.8718 1.7104 17.7316 0.959961 15.5 0.959961ZM9.74289 8.08275C9.74289 6.79022 10.3494 5.55063 11.4291 4.63668C12.5088 3.72272 13.9731 3.20926 15.5 3.20926C17.0269 3.20926 18.4912 3.72272 19.5709 4.63668C20.6506 5.55063 21.2571 6.79022 21.2571 8.08275C21.2571 9.37528 20.6506 10.6149 19.5709 11.5288C18.4912 12.4428 17.0269 12.9562 15.5 12.9562C13.9731 12.9562 12.5088 12.4428 11.4291 11.5288C10.3494 10.6149 9.74289 9.37528 9.74289 8.08275ZM15.5 17.4548C11.4027 17.4548 7.62605 18.2436 4.82898 19.5752C2.07266 20.8888 9.90256e-05 22.8772 9.90256e-05 25.3274V25.4804C-0.00167239 27.2228 -0.00344396 29.4091 2.2622 30.9717C3.37642 31.7394 4.93704 32.2867 7.04502 32.6466C9.15655 33.0095 11.9111 33.2 15.5 33.2C19.0889 33.2 21.8417 33.0095 23.9567 32.6466C26.0647 32.2867 27.6236 31.7394 28.7396 30.9717C31.0052 29.4091 31.0017 27.2228 30.9999 25.4804V25.3274C30.9999 22.8772 28.9273 20.8888 26.1728 19.5752C23.3739 18.2436 19.5991 17.4548 15.5 17.4548ZM2.65722 25.3274C2.65722 24.0513 3.75905 22.6657 6.13097 21.5366C8.46216 20.4269 11.7712 19.7041 15.5018 19.7041C19.2288 19.7041 22.5378 20.4269 24.869 21.5366C27.2427 22.6657 28.3428 24.0513 28.3428 25.3274C28.3428 27.2888 28.2719 28.3925 27.0603 29.2262C26.4048 29.6791 25.3066 30.1214 23.4289 30.4423C21.5565 30.7632 18.9968 30.9507 15.5 30.9507C12.0032 30.9507 9.44175 30.7632 7.57114 30.4423C5.69343 30.1214 4.59515 29.6791 3.93973 29.2277C2.72808 28.3925 2.65722 27.2888 2.65722 25.3274Z" fill="#8285FB"/>
</svg>
