<svg width="31" height="34" viewBox="0 0 31 34" fill="none" xmlns="http://www.w3.org/2000/svg">
<path fill-rule="evenodd" clip-rule="evenodd" d="M15.5 0.960022C13.2684 0.960022 11.1282 1.71046 9.55024 3.04624C7.97226 4.38202 7.08577 6.19373 7.08577 8.08281C7.08577 9.9719 7.97226 11.7836 9.55024 13.1194C11.1282 14.4552 13.2684 15.2056 15.5 15.2056C17.7316 15.2056 19.8718 14.4552 21.4498 13.1194C23.0277 11.7836 23.9142 9.9719 23.9142 8.08281C23.9142 6.19373 23.0277 4.38202 21.4498 3.04624C19.8718 1.71046 17.7316 0.960022 15.5 0.960022ZM9.74289 8.08281C9.74289 6.79028 10.3494 5.55069 11.4291 4.63674C12.5088 3.72278 13.9731 3.20932 15.5 3.20932C17.0269 3.20932 18.4912 3.72278 19.5709 4.63674C20.6506 5.55069 21.2571 6.79028 21.2571 8.08281C21.2571 9.37534 20.6506 10.6149 19.5709 11.5289C18.4912 12.4428 17.0269 12.9563 15.5 12.9563C13.9731 12.9563 12.5088 12.4428 11.4291 11.5289C10.3494 10.6149 9.74289 9.37534 9.74289 8.08281ZM15.5 17.4549C11.4027 17.4549 7.62605 18.2437 4.82898 19.5752C2.07266 20.8888 9.90256e-05 22.8772 9.90256e-05 25.3275V25.4804C-0.00167239 27.2229 -0.00344396 29.4092 2.2622 30.9717C3.37642 31.7395 4.93704 32.2868 7.04502 32.6467C9.15655 33.0096 11.9111 33.2 15.5 33.2C19.0889 33.2 21.8417 33.0096 23.9567 32.6467C26.0647 32.2868 27.6236 31.7395 28.7396 30.9717C31.0052 29.4092 31.0017 27.2229 30.9999 25.4804V25.3275C30.9999 22.8772 28.9273 20.8888 26.1728 19.5752C23.3739 18.2437 19.5991 17.4549 15.5 17.4549ZM2.65722 25.3275C2.65722 24.0514 3.75905 22.6658 6.13097 21.5366C8.46216 20.427 11.7712 19.7042 15.5018 19.7042C19.2288 19.7042 22.5378 20.427 24.869 21.5366C27.2427 22.6658 28.3428 24.0514 28.3428 25.3275C28.3428 27.2889 28.2719 28.3925 27.0603 29.2263C26.4048 29.6791 25.3066 30.1215 23.4289 30.4424C21.5565 30.7633 18.9968 30.9507 15.5 30.9507C12.0032 30.9507 9.44175 30.7633 7.57114 30.4424C5.69343 30.1215 4.59515 29.6791 3.93973 29.2278C2.72808 28.3925 2.65722 27.2889 2.65722 25.3275Z" fill="black" fill-opacity="0.5"/>
</svg>
