<svg width="113" height="115" viewBox="0 0 113 115" fill="none" xmlns="http://www.w3.org/2000/svg">
<path d="M79.1 46C79.1 52.1 76.719 57.9501 72.4806 62.2635C68.2423 66.5768 62.4939 69 56.5 69C50.5061 69 44.7577 66.5768 40.5194 62.2635C36.2811 57.9501 33.9 52.1 33.9 46C33.9 39.9 36.2811 34.0499 40.5194 29.7365C44.7577 25.4232 50.5061 23 56.5 23C62.4939 23 68.2423 25.4232 72.4806 29.7365C76.719 34.0499 79.1 39.9 79.1 46Z" fill="black"/>
<path fill-rule="evenodd" clip-rule="evenodd" d="M54.1948 114.954C24.0605 113.724 0 88.4695 0 57.5C0 25.7428 25.2951 0 56.5 0C87.7049 0 113 25.7428 113 57.5C113 89.2572 87.7049 115 56.5 115H55.726C55.2137 115 54.7033 114.985 54.1948 114.954ZM20.244 93.7825C19.8215 92.5479 19.6777 91.2323 19.8233 89.9334C19.9688 88.6345 20.3999 87.3856 21.0846 86.2795C21.7693 85.1734 22.69 84.2384 23.7784 83.544C24.8667 82.8495 26.0948 82.4135 27.3714 82.2681C49.3951 79.787 63.7405 80.0112 85.6568 82.3199C86.9352 82.4554 88.1663 82.8859 89.2564 83.5788C90.3465 84.2717 91.2668 85.2086 91.9474 86.3182C92.6279 87.4277 93.0507 88.6807 93.1835 89.9817C93.3163 91.2827 93.1556 92.5974 92.7137 93.8256C102.107 84.1542 107.367 71.0987 107.35 57.5C107.35 28.9196 84.5833 5.75 56.5 5.75C28.4167 5.75 5.65 28.9196 5.65 57.5C5.65 71.6335 11.2181 84.4445 20.244 93.7825Z" fill="black"/>
</svg>
