<svg width="41" height="41" viewBox="0 0 41 41" fill="none" xmlns="http://www.w3.org/2000/svg">
<path d="M5.20253 22.7599C4.44298 21.9627 4.18724 20.8254 4.87019 19.9621C5.06759 19.7141 5.30682 19.4418 5.59792 19.1507C5.88901 18.8596 6.16125 18.6204 6.40991 18.4236C7.27317 17.7395 8.40985 17.9958 9.20711 18.7553C10.3803 19.8732 12.3844 21.8124 15.3206 24.7487C18.2569 27.6849 20.1961 29.689 21.314 30.8622C22.0735 31.6595 22.3292 32.7967 21.6463 33.66C21.4489 33.9081 21.2097 34.1803 20.9186 34.4714C20.6275 34.7625 20.3552 35.0017 20.1072 35.1991C19.2433 35.8827 18.1066 35.6263 17.3094 34.8668C16.1362 33.749 14.1321 31.8097 11.1958 28.8735C8.25958 25.9372 6.32034 23.9331 5.20253 22.7599ZM22.76 5.20247C21.9627 4.44292 20.8255 4.18718 19.9622 4.87013C19.7141 5.06753 19.4419 5.30677 19.1508 5.59786C18.8597 5.88895 18.6205 6.16119 18.4237 6.40985C17.7395 7.27311 17.9959 8.40979 18.7554 9.20705C19.8732 10.3803 21.8125 12.3843 24.7487 15.3206C27.685 18.2568 29.689 20.1961 30.8623 21.3139C31.6595 22.0734 32.7968 22.3292 33.66 21.6462C33.9081 21.4488 34.1804 21.2096 34.4714 20.9185C34.7625 20.6274 35.0018 20.3552 35.1992 20.1071C35.8827 19.2433 35.6264 18.1066 34.8668 17.3093C33.749 16.1361 31.8098 14.132 28.8735 11.1958C25.9373 8.25953 23.9332 6.32029 22.76 5.20247Z" stroke="#8285FB" stroke-width="2" stroke-linecap="round" stroke-linejoin="round"/>
<path d="M17.0737 26.5101C20.236 23.3816 23.379 20.2335 26.5024 17.0661M23.0022 13.5671C21.5697 14.9795 19.8025 16.7314 17.6771 18.8568C16.1049 20.4289 14.7361 21.806 13.5588 22.9963M4.63037 29.3143C3.77359 28.4151 3.59092 27.1152 4.44063 26.209C4.6198 26.0182 4.80492 25.833 4.99571 25.6539C5.90198 24.8042 7.20129 24.9862 8.10109 25.8436C8.83942 26.5466 9.86355 27.5413 11.1959 28.8736C12.5282 30.2059 13.5222 31.2306 14.2258 31.9683C15.0826 32.8675 15.2653 34.1674 14.4156 35.0737C14.2364 35.2645 14.0513 35.4496 13.8605 35.6288C12.9542 36.4785 11.6549 36.2964 10.7551 35.4391C10.0168 34.7361 8.99263 33.7414 7.66032 32.4091C6.32802 31.0768 5.33394 30.0521 4.63037 29.3143ZM29.3143 4.63041C28.4151 3.77364 27.1152 3.59097 26.2089 4.44067C26.0181 4.61984 25.833 4.80496 25.6538 4.99575C24.8041 5.90203 24.9862 7.20134 25.8436 8.10113C26.5466 8.83947 27.5412 9.86359 28.8735 11.1959C30.2058 12.5282 31.2305 13.5223 31.9683 14.2259C32.8675 15.0826 34.1674 15.2653 35.0737 14.4156C35.2645 14.2364 35.4496 14.0513 35.6288 13.8605C36.4785 12.9542 36.2964 11.6549 35.439 10.7551C34.736 10.0168 33.7414 8.99267 32.4091 7.66037C31.0768 6.32806 30.052 5.33398 29.3143 4.63041Z" stroke="#8285FB" stroke-width="2" stroke-linecap="round" stroke-linejoin="round"/>
</svg>
