<svg width="31" height="34" viewBox="0 0 31 34" fill="none" xmlns="http://www.w3.org/2000/svg">
<mask id="path-1-inside-1_5_531" fill="white">
<path d="M28.3782 12.2636L27.1788 11.0163L28.0156 10.0989C28.2399 9.86688 28.352 9.60521 28.352 9.31392C28.352 9.02385 28.2399 8.76218 28.0156 8.52891L23.6435 3.9838C23.4204 3.75174 23.1694 3.63571 22.8905 3.63571C22.6115 3.63571 22.3599 3.75174 22.1356 3.9838L21.2536 4.85402L20.0106 3.56138L20.9834 2.50442C21.4947 1.97261 22.1217 1.71457 22.8643 1.73028C23.6069 1.74599 24.2339 2.01915 24.7453 2.54974L29.3945 7.38674C29.9058 7.91854 30.1615 8.56275 30.1615 9.31936C30.1615 10.076 29.9058 10.7202 29.3945 11.252L28.3782 12.2636ZM9.97306 31.4503C9.46171 31.9821 8.84228 32.248 8.11477 32.248C7.38726 32.248 6.76783 31.9821 6.25648 31.4503L1.74149 26.7547C1.2069 26.1987 0.939605 25.5074 0.939605 24.6806C0.939605 23.8539 1.2069 23.1632 1.74149 22.6084L2.57825 21.7364L3.82292 23.0308L2.97396 23.9011C2.75083 24.1343 2.63926 24.396 2.63926 24.6861C2.63926 24.9761 2.75083 25.2378 2.97396 25.4711L7.35646 30.0271C7.5796 30.2603 7.83062 30.377 8.10954 30.377C8.38846 30.377 8.64007 30.2603 8.86437 30.0271L9.70112 29.146L10.9458 30.4386L9.97306 31.4503ZM26.94 19.1148L28.9221 17.0535C29.1452 16.8214 29.2568 16.5543 29.2568 16.2522C29.2568 15.95 29.1452 15.6829 28.9221 15.4508L16.9896 3.04287C16.7665 2.8096 16.5096 2.69297 16.2191 2.69297C15.9285 2.69297 15.6717 2.809 15.4486 3.04105L13.4665 5.1024C13.2434 5.33446 13.1318 5.59613 13.1318 5.88741C13.1318 6.17749 13.2434 6.43916 13.4665 6.67243L25.4321 19.1148C25.6552 19.3469 25.9063 19.4629 26.1852 19.4629C26.4641 19.4629 26.7157 19.3469 26.94 19.1148ZM15.5078 31.0043L17.4899 28.932C17.713 28.7 17.8246 28.4389 17.8246 28.1488C17.8246 27.8588 17.713 27.5971 17.4899 27.3638L5.53478 14.9305C5.31165 14.6984 5.06004 14.5824 4.77996 14.5824C4.50104 14.5824 4.25001 14.6984 4.02688 14.9305L2.03436 16.9918C1.81122 17.2239 1.69966 17.491 1.69966 17.7932C1.69966 18.0953 1.81122 18.3624 2.03436 18.5945L13.9668 31.0025C14.19 31.2357 14.4468 31.3524 14.7373 31.3524C15.0279 31.3524 15.2847 31.2363 15.5078 31.0043ZM14.2736 21.4445L19.7387 15.7699L16.681 12.5918L11.2265 18.2754L14.2736 21.4445ZM16.7177 32.286C16.1842 32.842 15.5241 33.12 14.7373 33.12C13.9506 33.12 13.2899 32.842 12.7553 32.286L0.80189 19.8545C0.267297 19.2985 0 18.6114 0 17.7932C0 16.9749 0.267297 16.2884 0.80189 15.7336L2.78221 13.6379C3.3168 13.0819 3.98156 12.8039 4.77647 12.8039C5.57139 12.8039 6.23556 13.0819 6.76899 13.6379L9.98352 16.981L15.4486 11.2973L12.234 7.96508C11.6995 7.4091 11.4322 6.71654 11.4322 5.88741C11.4322 5.05828 11.6995 4.36573 12.234 3.80975L14.2475 1.71396C14.7821 1.15799 15.4463 0.879997 16.24 0.879997C17.0338 0.879997 17.6985 1.15799 18.2343 1.71396L30.1981 14.1564C30.7327 14.7123 31 15.4037 31 16.2304C31 17.0571 30.7327 17.7478 30.1981 18.3026L28.1847 20.3984C27.6501 20.9544 26.9836 21.2324 26.1852 21.2324C25.3868 21.2324 24.7209 20.9544 24.1874 20.3984L20.9834 17.0535L15.5183 22.7371L18.7328 26.0802C19.2674 26.6362 19.5347 27.3276 19.5347 28.1543C19.5347 28.981 19.2674 29.6717 18.7328 30.2265L16.7177 32.286Z"/>
</mask>
<path d="M28.3782 12.2636L27.1788 11.0163L28.0156 10.0989C28.2399 9.86688 28.352 9.60521 28.352 9.31392C28.352 9.02385 28.2399 8.76218 28.0156 8.52891L23.6435 3.9838C23.4204 3.75174 23.1694 3.63571 22.8905 3.63571C22.6115 3.63571 22.3599 3.75174 22.1356 3.9838L21.2536 4.85402L20.0106 3.56138L20.9834 2.50442C21.4947 1.97261 22.1217 1.71457 22.8643 1.73028C23.6069 1.74599 24.2339 2.01915 24.7453 2.54974L29.3945 7.38674C29.9058 7.91854 30.1615 8.56275 30.1615 9.31936C30.1615 10.076 29.9058 10.7202 29.3945 11.252L28.3782 12.2636ZM9.97306 31.4503C9.46171 31.9821 8.84228 32.248 8.11477 32.248C7.38726 32.248 6.76783 31.9821 6.25648 31.4503L1.74149 26.7547C1.2069 26.1987 0.939605 25.5074 0.939605 24.6806C0.939605 23.8539 1.2069 23.1632 1.74149 22.6084L2.57825 21.7364L3.82292 23.0308L2.97396 23.9011C2.75083 24.1343 2.63926 24.396 2.63926 24.6861C2.63926 24.9761 2.75083 25.2378 2.97396 25.4711L7.35646 30.0271C7.5796 30.2603 7.83062 30.377 8.10954 30.377C8.38846 30.377 8.64007 30.2603 8.86437 30.0271L9.70112 29.146L10.9458 30.4386L9.97306 31.4503ZM26.94 19.1148L28.9221 17.0535C29.1452 16.8214 29.2568 16.5543 29.2568 16.2522C29.2568 15.95 29.1452 15.6829 28.9221 15.4508L16.9896 3.04287C16.7665 2.8096 16.5096 2.69297 16.2191 2.69297C15.9285 2.69297 15.6717 2.809 15.4486 3.04105L13.4665 5.1024C13.2434 5.33446 13.1318 5.59613 13.1318 5.88741C13.1318 6.17749 13.2434 6.43916 13.4665 6.67243L25.4321 19.1148C25.6552 19.3469 25.9063 19.4629 26.1852 19.4629C26.4641 19.4629 26.7157 19.3469 26.94 19.1148ZM15.5078 31.0043L17.4899 28.932C17.713 28.7 17.8246 28.4389 17.8246 28.1488C17.8246 27.8588 17.713 27.5971 17.4899 27.3638L5.53478 14.9305C5.31165 14.6984 5.06004 14.5824 4.77996 14.5824C4.50104 14.5824 4.25001 14.6984 4.02688 14.9305L2.03436 16.9918C1.81122 17.2239 1.69966 17.491 1.69966 17.7932C1.69966 18.0953 1.81122 18.3624 2.03436 18.5945L13.9668 31.0025C14.19 31.2357 14.4468 31.3524 14.7373 31.3524C15.0279 31.3524 15.2847 31.2363 15.5078 31.0043ZM14.2736 21.4445L19.7387 15.7699L16.681 12.5918L11.2265 18.2754L14.2736 21.4445ZM16.7177 32.286C16.1842 32.842 15.5241 33.12 14.7373 33.12C13.9506 33.12 13.2899 32.842 12.7553 32.286L0.80189 19.8545C0.267297 19.2985 0 18.6114 0 17.7932C0 16.9749 0.267297 16.2884 0.80189 15.7336L2.78221 13.6379C3.3168 13.0819 3.98156 12.8039 4.77647 12.8039C5.57139 12.8039 6.23556 13.0819 6.76899 13.6379L9.98352 16.981L15.4486 11.2973L12.234 7.96508C11.6995 7.4091 11.4322 6.71654 11.4322 5.88741C11.4322 5.05828 11.6995 4.36573 12.234 3.80975L14.2475 1.71396C14.7821 1.15799 15.4463 0.879997 16.24 0.879997C17.0338 0.879997 17.6985 1.15799 18.2343 1.71396L30.1981 14.1564C30.7327 14.7123 31 15.4037 31 16.2304C31 17.0571 30.7327 17.7478 30.1981 18.3026L28.1847 20.3984C27.6501 20.9544 26.9836 21.2324 26.1852 21.2324C25.3868 21.2324 24.7209 20.9544 24.1874 20.3984L20.9834 17.0535L15.5183 22.7371L18.7328 26.0802C19.2674 26.6362 19.5347 27.3276 19.5347 28.1543C19.5347 28.981 19.2674 29.6717 18.7328 30.2265L16.7177 32.286Z" fill="white"/>
<path d="M28.3782 12.2636L21.1698 19.1947L28.2219 26.5288L35.4329 19.351L28.3782 12.2636ZM27.1788 11.0163L19.7906 4.2773L13.4793 11.1966L19.9705 17.9474L27.1788 11.0163ZM28.0156 10.0989L20.8253 3.14916L20.7248 3.25312L20.6274 3.35993L28.0156 10.0989ZM28.0156 8.52891L35.2239 1.59782L35.2225 1.59639L28.0156 8.52891ZM23.6435 3.9838L16.4352 10.9149L16.4366 10.9163L23.6435 3.9838ZM22.1356 3.9838L29.1587 11.1025L29.2433 11.019L29.326 10.9336L22.1356 3.9838ZM21.2536 4.85402L14.0452 11.7851L21.0659 19.0866L28.2766 11.9728L21.2536 4.85402ZM20.0106 3.56138L12.6524 -3.21041L6.28215 3.71151L12.8023 10.4925L20.0106 3.56138ZM20.9834 2.50442L13.775 -4.42667L13.6992 -4.34784L13.6252 -4.26737L20.9834 2.50442ZM24.7453 2.54974L31.9549 -4.38L31.9457 -4.38954L24.7453 2.54974ZM29.3945 7.38674L22.1848 14.3165L22.1861 14.3178L29.3945 7.38674ZM29.3945 11.252L36.4492 18.3393L36.5269 18.262L36.6028 18.1831L29.3945 11.252ZM9.97306 31.4503L17.1814 38.3813L17.1814 38.3813L9.97306 31.4503ZM6.25648 31.4503L13.4648 24.5192L13.4648 24.5192L6.25648 31.4503ZM1.74149 26.7547L-5.46684 33.6858L-5.46684 33.6858L1.74149 26.7547ZM1.74149 22.6084L8.94228 29.5473L8.94967 29.5397L8.95703 29.532L1.74149 22.6084ZM2.57825 21.7364L9.78658 14.8053L2.57074 7.30082L-4.63729 14.8128L2.57825 21.7364ZM3.82292 23.0308L10.9809 30.0139L17.7442 23.0812L11.0312 16.0997L3.82292 23.0308ZM2.97396 23.9011L-4.18403 16.918L-4.21835 16.9532L-4.25233 16.9887L2.97396 23.9011ZM2.97396 25.4711L-4.25233 32.3834L-4.24267 32.3935L-4.23299 32.4036L2.97396 25.4711ZM7.35646 30.0271L14.5828 23.1147L14.5731 23.1046L14.5634 23.0946L7.35646 30.0271ZM8.86437 30.0271L16.0727 36.9582L16.0942 36.9358L16.1156 36.9133L8.86437 30.0271ZM9.70112 29.146L16.9046 22.2098L9.65116 14.6769L2.44993 22.2597L9.70112 29.146ZM10.9458 30.4386L18.1541 37.3697L24.8233 30.4337L18.1493 23.5025L10.9458 30.4386ZM26.94 19.1148L34.1303 26.0646L34.1393 26.0553L34.1483 26.0459L26.94 19.1148ZM28.9221 17.0535L21.7137 10.1224L21.7137 10.1224L28.9221 17.0535ZM28.9221 15.4508L36.1304 8.51973L36.1299 8.51921L28.9221 15.4508ZM16.9896 3.04287L9.7633 9.95522L9.77252 9.96486L9.78177 9.97448L16.9896 3.04287ZM15.4486 3.04105L8.24024 -3.89003L8.24024 -3.89003L15.4486 3.04105ZM13.4665 5.1024L20.6748 12.0335L20.6748 12.0335L13.4665 5.1024ZM13.4665 6.67243L6.24022 13.5848L6.24944 13.5944L6.25868 13.604L13.4665 6.67243ZM25.4321 19.1148L32.6404 12.1837L32.6399 12.1832L25.4321 19.1148ZM15.5078 31.0043L22.7162 37.9354L22.7253 37.9259L22.7344 37.9164L15.5078 31.0043ZM17.4899 28.932L10.2816 22.001L10.2725 22.0104L10.2634 22.0199L17.4899 28.932ZM17.4899 27.3638L24.7162 20.4515L24.7072 20.4421L24.6982 20.4327L17.4899 27.3638ZM5.53478 14.9305L12.7431 7.99941L12.7431 7.99941L5.53478 14.9305ZM4.02688 14.9305L11.217 21.8805L11.2261 21.8711L11.2352 21.8616L4.02688 14.9305ZM2.03436 16.9918L-5.15572 10.0418L-5.16486 10.0513L-5.17397 10.0608L2.03436 16.9918ZM2.03436 18.5945L-5.17397 25.5256L-5.17347 25.5261L2.03436 18.5945ZM13.9668 31.0025L21.1931 24.0901L21.1839 24.0805L21.1746 24.0708L13.9668 31.0025ZM14.2736 21.4445L7.0653 28.3756L14.2679 35.8663L21.4764 28.3813L14.2736 21.4445ZM19.7387 15.7699L26.9415 22.7067L33.6187 15.7735L26.945 8.83676L19.7387 15.7699ZM16.681 12.5918L23.8874 5.65863L16.6721 -1.84103L9.46608 5.66758L16.681 12.5918ZM11.2265 18.2754L4.01149 11.3512L-2.64 18.2821L4.01812 25.2065L11.2265 18.2754ZM16.7177 32.286L9.57005 25.2923L9.53575 25.3274L9.50179 25.3628L16.7177 32.286ZM12.7553 32.286L5.54694 39.2171L5.54694 39.2171L12.7553 32.286ZM0.80189 19.8545L8.01022 12.9234L8.01022 12.9234L0.80189 19.8545ZM0.80189 15.7336L8.00268 22.6726L8.03669 22.6373L8.07036 22.6016L0.80189 15.7336ZM2.78221 13.6379L-4.42612 6.70676L-4.45633 6.73818L-4.48626 6.76985L2.78221 13.6379ZM6.76899 13.6379L-0.446874 20.5611L-0.439338 20.5689L6.76899 13.6379ZM9.98352 16.981L2.77519 23.912L9.98352 31.4087L17.1919 23.912L9.98352 16.981ZM15.4486 11.2973L22.6569 18.2284L29.3323 11.286L22.6456 4.3545L15.4486 11.2973ZM12.234 7.96508L5.02571 14.8962L5.03135 14.902L5.03701 14.9079L12.234 7.96508ZM12.234 3.80975L19.4424 10.7408L19.4454 10.7377L12.234 3.80975ZM14.2475 1.71396L7.03915 -5.21713L7.03615 -5.21401L14.2475 1.71396ZM18.2343 1.71396L25.4426 -5.21713L25.4351 -5.22494L18.2343 1.71396ZM30.1981 14.1564L22.9898 21.0874L30.1981 14.1564ZM30.1981 18.3026L22.9973 11.3637L22.992 11.3692L22.9868 11.3746L30.1981 18.3026ZM28.1847 20.3984L35.393 27.3295L35.396 27.3264L28.1847 20.3984ZM24.1874 20.3984L16.9659 27.3158L16.9716 27.3217L24.1874 20.3984ZM20.9834 17.0535L28.2048 10.1361L20.9971 2.61147L13.775 10.1224L20.9834 17.0535ZM15.5183 22.7371L8.30997 15.8061L1.64546 22.7371L8.30997 29.6682L15.5183 22.7371ZM18.7328 26.0802L25.9412 19.1492L25.9412 19.1492L18.7328 26.0802ZM18.7328 30.2265L25.8804 37.2202L25.9071 37.1929L25.9336 37.1654L18.7328 30.2265ZM28.3782 12.2636L35.5865 5.33254L34.3872 4.08522L27.1788 11.0163L19.9705 17.9474L21.1698 19.1947L28.3782 12.2636ZM27.1788 11.0163L34.567 17.7553L35.4038 16.8379L28.0156 10.0989L20.6274 3.35993L19.7906 4.2773L27.1788 11.0163ZM28.0156 10.0989L35.2059 17.0487C37.0202 15.1717 38.352 12.4887 38.352 9.31392H28.352H18.352C18.352 8.1374 18.5866 6.9325 19.0765 5.78932C19.5586 4.66451 20.2049 3.79101 20.8253 3.14916L28.0156 10.0989ZM28.352 9.31392H38.352C38.352 6.13186 37.0142 3.45968 35.2239 1.59782L28.0156 8.52891L20.8072 15.46C20.1965 14.8248 19.5559 13.958 19.0765 12.8394C18.5888 11.7015 18.352 10.4969 18.352 9.31392H28.352ZM28.0156 8.52891L35.2225 1.59639L30.8505 -2.94872L23.6435 3.9838L16.4366 10.9163L20.8086 15.4614L28.0156 8.52891ZM23.6435 3.9838L30.8519 -2.94729C29.0603 -4.81052 26.3152 -6.36429 22.8905 -6.36429V3.63571V13.6357C21.5939 13.6357 20.2935 13.3552 19.0922 12.8C17.9197 12.258 17.0464 11.5505 16.4352 10.9149L23.6435 3.9838ZM22.8905 3.63571V-6.36429C19.4694 -6.36429 16.7316 -4.81413 14.9453 -2.96598L22.1356 3.9838L29.326 10.9336C28.7173 11.5633 27.8476 12.2653 26.6803 12.8037C25.484 13.3553 24.187 13.6357 22.8905 13.6357V3.63571ZM22.1356 3.9838L15.1126 -3.13494L14.2305 -2.26472L21.2536 4.85402L28.2766 11.9728L29.1587 11.1025L22.1356 3.9838ZM21.2536 4.85402L28.4619 -2.07707L27.219 -3.36971L20.0106 3.56138L12.8023 10.4925L14.0452 11.7851L21.2536 4.85402ZM20.0106 3.56138L27.3688 10.3332L28.3415 9.2762L20.9834 2.50442L13.6252 -4.26737L12.6524 -3.21041L20.0106 3.56138ZM20.9834 2.50442L28.1917 9.4355C27.5717 10.0803 26.7215 10.7156 25.643 11.1595C24.5662 11.6027 23.5254 11.7465 22.6528 11.728L22.8643 1.73028L23.0758 -8.26748C19.5618 -8.34183 16.2377 -6.98784 13.775 -4.42667L20.9834 2.50442ZM22.8643 1.73028L22.6528 11.728C21.8342 11.7107 20.8781 11.5419 19.8975 11.1147C18.9153 10.6868 18.1298 10.096 17.5448 9.48902L24.7453 2.54974L31.9457 -4.38954C29.584 -6.84014 26.437 -8.19637 23.0758 -8.26748L22.8643 1.73028ZM24.7453 2.54974L17.5356 9.47948L22.1848 14.3165L29.3945 7.38674L36.6041 0.457001L31.9549 -4.38L24.7453 2.54974ZM29.3945 7.38674L22.1861 14.3178C21.6013 13.7096 21.056 12.9176 20.675 11.9577C20.2959 11.0023 20.1615 10.088 20.1615 9.31936H30.1615H40.1615C40.1615 6.05195 38.9557 2.90262 36.6028 0.455651L29.3945 7.38674ZM30.1615 9.31936H20.1615C20.1615 8.55074 20.2959 7.63641 20.675 6.68108C21.056 5.7211 21.6013 4.92915 22.1861 4.3209L29.3945 11.252L36.6028 18.1831C38.9557 15.7361 40.1615 12.5868 40.1615 9.31936H30.1615ZM29.3945 11.252L22.3397 4.16464L21.3234 5.17627L28.3782 12.2636L35.4329 19.351L36.4492 18.3393L29.3945 11.252ZM9.97306 31.4503L2.76473 24.5192C3.34716 23.9134 4.1507 23.3014 5.18039 22.8594C6.21308 22.4161 7.23096 22.248 8.11477 22.248V32.248V42.248C11.6055 42.248 14.8147 40.8427 17.1814 38.3813L9.97306 31.4503ZM8.11477 32.248V22.248C8.99858 22.248 10.0165 22.4161 11.0492 22.8594C12.0789 23.3014 12.8824 23.9135 13.4648 24.5192L6.25648 31.4503L-0.95185 38.3813C1.41486 40.8427 4.62409 42.248 8.11477 42.248V32.248ZM6.25648 31.4503L13.4648 24.5192L8.94982 19.8236L1.74149 26.7547L-5.46684 33.6858L-0.95185 38.3813L6.25648 31.4503ZM1.74149 26.7547L8.94983 19.8236C9.56438 20.4627 10.1028 21.2705 10.4672 22.213C10.8267 23.1428 10.9396 24.0025 10.9396 24.6806H0.939605H-9.06039C-9.06039 27.8874 -7.92936 31.1247 -5.46684 33.6858L1.74149 26.7547ZM0.939605 24.6806H10.9396C10.9396 25.3587 10.8267 26.2196 10.4662 27.1515C10.1006 28.0962 9.55996 28.9063 8.94228 29.5473L1.74149 22.6084L-5.4593 15.6695C-7.92904 18.2324 -9.06039 21.4739 -9.06039 24.6806H0.939605ZM1.74149 22.6084L8.95703 29.532L9.79378 28.66L2.57825 21.7364L-4.63729 14.8128L-5.47404 15.6848L1.74149 22.6084ZM2.57825 21.7364L-4.63008 28.6675L-3.38541 29.9619L3.82292 23.0308L11.0312 16.0997L9.78658 14.8053L2.57825 21.7364ZM3.82292 23.0308L-3.33507 16.0478L-4.18403 16.918L2.97396 23.9011L10.132 30.8841L10.9809 30.0139L3.82292 23.0308ZM2.97396 23.9011L-4.25233 16.9887C-6.03716 18.8546 -7.36074 21.5211 -7.36074 24.6861H2.63926H12.6393C12.6393 25.8617 12.4052 27.0603 11.9217 28.1943C11.4462 29.3096 10.8097 30.1763 10.2003 30.8134L2.97396 23.9011ZM2.63926 24.6861H-7.36074C-7.36074 27.851 -6.03719 30.5175 -4.25233 32.3834L2.97396 25.4711L10.2003 18.5587C10.8098 19.1959 11.4462 20.0626 11.9217 21.1779C12.4052 22.3119 12.6393 23.5104 12.6393 24.6861H2.63926ZM2.97396 25.4711L-4.23299 32.4036L0.149512 36.9596L7.35646 30.0271L14.5634 23.0946L10.1809 18.5386L2.97396 25.4711ZM7.35646 30.0271L0.13017 36.9394C1.91626 38.8066 4.66629 40.377 8.10954 40.377V30.377V20.377C9.41412 20.377 10.7208 20.6607 11.9257 21.2206C13.1011 21.7667 13.9741 22.4784 14.5828 23.1147L7.35646 30.0271ZM8.10954 30.377V40.377C11.549 40.377 14.2918 38.8103 16.0727 36.9582L8.86437 30.0271L1.65603 23.096C2.26227 22.4655 3.13161 21.7593 4.3018 21.2169C5.5017 20.6607 6.80504 20.377 8.10954 20.377V30.377ZM8.86437 30.0271L16.1156 36.9133L16.9523 36.0322L9.70112 29.146L2.44993 22.2597L1.61317 23.1408L8.86437 30.0271ZM9.70112 29.146L2.49765 36.0821L3.74232 37.3748L10.9458 30.4386L18.1493 23.5025L16.9046 22.2098L9.70112 29.146ZM10.9458 30.4386L3.73744 23.5075L2.76472 24.5192L9.97306 31.4503L17.1814 38.3813L18.1541 37.3697L10.9458 30.4386ZM26.94 19.1148L34.1483 26.0459L36.1304 23.9846L28.9221 17.0535L21.7137 10.1224L19.7317 12.1837L26.94 19.1148ZM28.9221 17.0535L36.1304 23.9846C38.0156 22.024 39.2568 19.3191 39.2568 16.2522H29.2568H19.2568C19.2568 15.1391 19.4692 13.9657 19.9456 12.825C20.4173 11.6957 21.0636 10.7985 21.7137 10.1224L28.9221 17.0535ZM29.2568 16.2522H39.2568C39.2568 13.1852 38.0156 10.4803 36.1304 8.51973L28.9221 15.4508L21.7137 22.3819C21.0636 21.7058 20.4173 20.8086 19.9456 19.6793C19.4692 18.5386 19.2568 17.3652 19.2568 16.2522H29.2568ZM28.9221 15.4508L36.1299 8.51921L24.1974 -3.88874L16.9896 3.04287L9.78177 9.97448L21.7142 22.3824L28.9221 15.4508ZM16.9896 3.04287L24.2159 -3.86949C22.3374 -5.83329 19.5561 -7.30703 16.2191 -7.30703V2.69297V12.693C14.982 12.693 13.7045 12.4349 12.4948 11.8856C11.3071 11.3462 10.4069 10.6281 9.7633 9.95522L16.9896 3.04287ZM16.2191 2.69297V-7.30703C12.9003 -7.30703 10.124 -5.84915 8.24024 -3.89003L15.4486 3.04105L22.6569 9.97214C22.0107 10.6442 21.1101 11.358 19.9256 11.8932C18.7197 12.4379 17.4485 12.693 16.2191 12.693V2.69297ZM15.4486 3.04105L8.24024 -3.89003L6.25818 -1.82869L13.4665 5.1024L20.6748 12.0335L22.6569 9.97214L15.4486 3.04105ZM13.4665 5.1024L6.25818 -1.82869C4.44937 0.0524727 3.13181 2.72977 3.13181 5.88741H13.1318H23.1318C23.1318 7.05661 22.9 8.25545 22.4143 9.39471C21.9361 10.5162 21.294 11.3896 20.6748 12.0335L13.4665 5.1024ZM13.1318 5.88741H3.13181C3.13181 9.05236 4.45535 11.7189 6.24022 13.5848L13.4665 6.67243L20.6928 -0.239928C21.3023 0.397248 21.9388 1.2639 22.4143 2.37921C22.8978 3.51321 23.1318 4.71177 23.1318 5.88741H13.1318ZM13.4665 6.67243L6.25868 13.604L18.2243 26.0464L25.4321 19.1148L32.6399 12.1832L20.6743 -0.259183L13.4665 6.67243ZM25.4321 19.1148L18.2238 26.0459C20.0154 27.9092 22.7604 29.4629 26.1852 29.4629V19.4629V9.46292C27.4818 9.46292 28.7821 9.74339 29.9834 10.2987C31.1559 10.8406 32.0293 11.5481 32.6404 12.1837L25.4321 19.1148ZM26.1852 19.4629V29.4629C29.6062 29.4629 32.344 27.9128 34.1303 26.0646L26.94 19.1148L19.7497 12.1651C20.3583 11.5353 21.2281 10.8333 22.3954 10.295C23.5916 9.74331 24.8887 9.46292 26.1852 9.46292V19.4629ZM15.5078 31.0043L22.7344 37.9164L24.7164 35.8442L17.4899 28.932L10.2634 22.0199L8.28132 24.0921L15.5078 31.0043ZM17.4899 28.932L24.6982 35.8631C26.4983 33.991 27.8246 31.3166 27.8246 28.1488H17.8246H7.82461C7.82461 26.9732 8.05867 25.7715 8.54541 24.6325C9.02427 23.512 9.66592 22.6412 10.2816 22.001L17.4899 28.932ZM17.8246 28.1488H27.8246C27.8246 24.9839 26.5011 22.3174 24.7162 20.4515L17.4899 27.3638L10.2636 34.2762C9.65412 33.639 9.01767 32.7724 8.54214 31.657C8.05864 30.523 7.82461 29.3245 7.82461 28.1488H17.8246ZM17.4899 27.3638L24.6982 20.4327L12.7431 7.99941L5.53478 14.9305L-1.67355 21.8616L10.2816 34.2949L17.4899 27.3638ZM5.53478 14.9305L12.7431 7.99941C10.9421 6.12636 8.19405 4.58241 4.77996 4.58241V14.5824V24.5824C3.49028 24.5824 2.19289 24.3046 0.991007 23.7503C-0.182808 23.209 -1.05888 22.5008 -1.67355 21.8616L5.53478 14.9305ZM4.77996 14.5824V4.58241C1.35518 4.58241 -1.3899 6.13619 -3.18145 7.99941L4.02688 14.9305L11.2352 21.8616C10.6241 22.4972 9.75071 23.2047 8.57821 23.7467C7.3769 24.3019 6.07655 24.5824 4.77996 24.5824V14.5824ZM4.02688 14.9305L-3.1632 7.98048L-5.15572 10.0418L2.03436 16.9918L9.22444 23.9419L11.217 21.8805L4.02688 14.9305ZM2.03436 16.9918L-5.17397 10.0608C-7.05918 12.0214 -8.30034 14.7262 -8.30034 17.7932H1.69966H11.6997C11.6997 18.9062 11.4872 20.0796 11.0108 21.2203C10.5391 22.3496 9.89281 23.2468 9.24269 23.9229L2.03436 16.9918ZM1.69966 17.7932H-8.30034C-8.30034 20.8601 -7.05917 23.565 -5.17397 25.5256L2.03436 18.5945L9.24269 11.6634C9.8928 12.3395 10.5391 13.2367 11.0108 14.366C11.4872 15.5067 11.6997 16.6802 11.6997 17.7932H1.69966ZM2.03436 18.5945L-5.17347 25.5261L6.759 37.9341L13.9668 31.0025L21.1746 24.0708L9.24218 11.6629L2.03436 18.5945ZM13.9668 31.0025L6.74053 37.9148C8.61904 39.8786 11.4004 41.3524 14.7373 41.3524V31.3524V21.3524C15.9744 21.3524 17.2519 21.6104 18.4616 22.1597C19.6493 22.6991 20.5495 23.4172 21.1931 24.0901L13.9668 31.0025ZM14.7373 31.3524V41.3524C18.0561 41.3524 20.8324 39.8945 22.7162 37.9354L15.5078 31.0043L8.29951 24.0732C8.9457 23.4011 9.84627 22.6873 11.0309 22.1521C12.2367 21.6074 13.5079 21.3524 14.7373 21.3524V31.3524ZM14.2736 21.4445L21.4764 28.3813L26.9415 22.7067L19.7387 15.7699L12.5359 8.83307L7.07083 14.5077L14.2736 21.4445ZM19.7387 15.7699L26.945 8.83676L23.8874 5.65863L16.681 12.5918L9.47469 19.5249L12.5323 22.703L19.7387 15.7699ZM16.681 12.5918L9.46608 5.66758L4.01149 11.3512L11.2265 18.2754L18.4414 25.1996L23.896 19.516L16.681 12.5918ZM11.2265 18.2754L4.01812 25.2065L7.0653 28.3756L14.2736 21.4445L21.482 14.5134L18.4348 11.3443L11.2265 18.2754ZM16.7177 32.286L9.50179 25.3628C10.1064 24.7326 10.9223 24.1245 11.9414 23.6954C12.9559 23.2682 13.9296 23.12 14.7373 23.12V33.12V43.12C18.183 43.12 21.4697 41.7772 23.9335 39.2093L16.7177 32.286ZM14.7373 33.12V23.12C15.5452 23.12 16.5176 23.2682 17.53 23.6942C18.5467 24.122 19.3605 24.7277 19.9636 25.3549L12.7553 32.286L5.54694 39.2171C8.0092 41.7779 11.292 43.12 14.7373 43.12V33.12ZM12.7553 32.286L19.9636 25.3549L8.01022 12.9234L0.80189 19.8545L-6.40644 26.7856L5.54694 39.2171L12.7553 32.286ZM0.80189 19.8545L8.01022 12.9234C8.61502 13.5524 9.15313 14.3533 9.52013 15.2967C9.88291 16.2293 10 17.098 10 17.7932H0H-10C-10 21.0222 -8.84901 24.2453 -6.40644 26.7856L0.80189 19.8545ZM0 17.7932H10C10 18.4882 9.88295 19.3582 9.51905 20.2928C9.15084 21.2385 8.61058 22.0417 8.00268 22.6726L0.80189 15.7336L-6.3989 8.79472C-8.84865 11.3369 -10 14.5641 -10 17.7932H0ZM0.80189 15.7336L8.07036 22.6016L10.0507 20.5059L2.78221 13.6379L-4.48626 6.76985L-6.46658 8.86564L0.80189 15.7336ZM2.78221 13.6379L9.99054 20.5689C9.37749 21.2065 8.55647 21.813 7.53978 22.2382C6.52958 22.6606 5.5664 22.8039 4.77647 22.8039V12.8039V2.80389C1.35513 2.80389 -1.94216 4.12344 -4.42612 6.70676L2.78221 13.6379ZM4.77647 12.8039V22.8039C3.98667 22.8039 3.02213 22.6607 2.00986 22.237C0.990842 21.8105 0.16774 21.2017 -0.44687 20.5611L6.76899 13.6379L13.9849 6.71461C11.4993 4.12403 8.19815 2.80389 4.77647 2.80389V12.8039ZM6.76899 13.6379L-0.439338 20.5689L2.77519 23.912L9.98352 16.981L17.1919 10.0499L13.9773 6.70677L6.76899 13.6379ZM9.98352 16.981L17.1919 23.912L22.6569 18.2284L15.4486 11.2973L8.24024 4.36622L2.77519 10.0499L9.98352 16.981ZM15.4486 11.2973L22.6456 4.3545L19.4311 1.02226L12.234 7.96508L5.03701 14.9079L8.25154 18.2401L15.4486 11.2973ZM12.234 7.96508L19.4424 1.03399C20.0597 1.67602 20.5982 2.4858 20.9619 3.42798C21.3204 4.35697 21.4322 5.21406 21.4322 5.88741H11.4322H1.43215C1.43215 9.08787 2.55755 12.3293 5.02571 14.8962L12.234 7.96508ZM11.4322 5.88741H21.4322C21.4322 6.56077 21.3204 7.41786 20.9619 8.34685C20.5982 9.28903 20.0597 10.0988 19.4424 10.7408L12.234 3.80975L5.02571 -3.12133C2.55755 -0.554447 1.43215 2.68696 1.43215 5.88741H11.4322ZM12.234 3.80975L19.4454 10.7377L21.4588 8.64193L14.2475 1.71396L7.03615 -5.21401L5.02272 -3.11822L12.234 3.80975ZM14.2475 1.71396L21.4558 8.64505C20.8442 9.28114 20.0242 9.88755 19.0075 10.3131C17.997 10.736 17.0325 10.88 16.24 10.88V0.879997V-9.12C12.8153 -9.12 9.52004 -7.79725 7.03915 -5.21712L14.2475 1.71396ZM16.24 0.879997V10.88C15.4474 10.88 14.4843 10.736 13.4758 10.3143C12.4614 9.89009 11.6435 9.28595 11.0335 8.65287L18.2343 1.71396L25.4351 -5.22494C22.9558 -7.79784 19.6644 -9.12 16.24 -9.12V0.879997ZM18.2343 1.71396L11.0259 8.64505L22.9898 21.0874L30.1981 14.1564L37.4064 7.22527L25.4426 -5.21712L18.2343 1.71396ZM30.1981 14.1564L22.9898 21.0874C22.3752 20.4483 21.8368 19.6405 21.4724 18.698C21.1129 17.7682 21 16.9086 21 16.2304H31H41C41 13.0236 39.869 9.78629 37.4064 7.22527L30.1981 14.1564ZM31 16.2304H21C21 15.5524 21.1129 14.6914 21.4735 13.7596C21.839 12.8148 22.3796 12.0047 22.9973 11.3637L30.1981 18.3026L37.3989 25.2415C39.8686 22.6786 41 19.4372 41 16.2304H31ZM30.1981 18.3026L22.9868 11.3746L20.9733 13.4704L28.1847 20.3984L35.396 27.3264L37.4094 25.2306L30.1981 18.3026ZM28.1847 20.3984L20.9763 13.4673C21.5937 12.8253 22.4177 12.2185 23.4344 11.7945C24.4436 11.3736 25.4028 11.2324 26.1852 11.2324V21.2324V31.2324C29.5963 31.2324 32.8998 29.9224 35.393 27.3295L28.1847 20.3984ZM26.1852 21.2324V11.2324C26.9674 11.2324 27.928 11.3735 28.9393 11.7957C29.9582 12.2211 30.7844 12.8301 31.4033 13.4752L24.1874 20.3984L16.9716 27.3217C19.4663 29.9218 22.7738 31.2324 26.1852 31.2324V21.2324ZM24.1874 20.3984L31.4089 13.481L28.2048 10.1361L20.9834 17.0535L13.7619 23.9709L16.9659 27.3158L24.1874 20.3984ZM20.9834 17.0535L13.775 10.1224L8.30997 15.8061L15.5183 22.7371L22.7266 29.6682L28.1917 23.9846L20.9834 17.0535ZM15.5183 22.7371L8.30997 29.6682L11.5245 33.0113L18.7328 26.0802L25.9412 19.1492L22.7266 15.806L15.5183 22.7371ZM18.7328 26.0802L11.5245 33.0113C10.9099 32.3722 10.3715 31.5644 10.0071 30.6219C9.64762 29.6921 9.53472 28.8324 9.53472 28.1543H19.5347H29.5347C29.5347 24.9475 28.4037 21.7102 25.9412 19.1492L18.7328 26.0802ZM19.5347 28.1543H9.53472C9.53472 27.4763 9.64758 26.6153 10.0082 25.6835C10.3738 24.7387 10.9144 23.9286 11.532 23.2876L18.7328 30.2265L25.9336 37.1654C28.4034 34.6025 29.5347 31.3611 29.5347 28.1543H19.5347ZM18.7328 30.2265L11.5852 23.2328L9.57005 25.2923L16.7177 32.286L23.8653 39.2797L25.8804 37.2202L18.7328 30.2265Z" fill="#8285FB" mask="url(#path-1-inside-1_5_531)"/>
</svg>
