<svg width="31" height="34" viewBox="0 0 31 34" fill="none" xmlns="http://www.w3.org/2000/svg">
<mask id="path-1-inside-1_17_86" fill="white">
<path d="M28.3782 12.2636L27.1788 11.0163L28.0156 10.0989C28.2399 9.86689 28.352 9.60521 28.352 9.31393C28.352 9.02386 28.2399 8.76218 28.0156 8.52892L23.6435 3.98381C23.4204 3.75175 23.1694 3.63572 22.8905 3.63572C22.6115 3.63572 22.3599 3.75175 22.1356 3.98381L21.2536 4.85403L20.0106 3.56138L20.9834 2.50442C21.4947 1.97262 22.1217 1.71457 22.8643 1.73029C23.6069 1.746 24.2339 2.01915 24.7453 2.54975L29.3945 7.38675C29.9058 7.91855 30.1615 8.56276 30.1615 9.31937C30.1615 10.076 29.9058 10.7202 29.3945 11.252L28.3782 12.2636ZM9.97306 31.4503C9.46171 31.9821 8.84228 32.248 8.11477 32.248C7.38726 32.248 6.76783 31.9821 6.25648 31.4503L1.74149 26.7547C1.2069 26.1987 0.939605 25.5074 0.939605 24.6806C0.939605 23.8539 1.2069 23.1632 1.74149 22.6084L2.57825 21.7364L3.82292 23.0308L2.97396 23.9011C2.75083 24.1343 2.63926 24.396 2.63926 24.6861C2.63926 24.9762 2.75083 25.2378 2.97396 25.4711L7.35646 30.0271C7.5796 30.2604 7.83062 30.377 8.10954 30.377C8.38846 30.377 8.64007 30.2604 8.86437 30.0271L9.70112 29.146L10.9458 30.4386L9.97306 31.4503ZM26.94 19.1148L28.9221 17.0535C29.1452 16.8214 29.2568 16.5543 29.2568 16.2522C29.2568 15.95 29.1452 15.6829 28.9221 15.4508L16.9896 3.04288C16.7665 2.80961 16.5096 2.69297 16.2191 2.69297C15.9285 2.69297 15.6717 2.809 15.4486 3.04106L13.4665 5.10241C13.2434 5.33447 13.1318 5.59614 13.1318 5.88742C13.1318 6.1775 13.2434 6.43917 13.4665 6.67244L25.4321 19.1148C25.6552 19.3469 25.9063 19.4629 26.1852 19.4629C26.4641 19.4629 26.7157 19.3469 26.94 19.1148ZM15.5078 31.0043L17.4899 28.9321C17.713 28.7 17.8246 28.4389 17.8246 28.1489C17.8246 27.8588 17.713 27.5971 17.4899 27.3638L5.53478 14.9305C5.31165 14.6984 5.06004 14.5824 4.77996 14.5824C4.50104 14.5824 4.25001 14.6984 4.02688 14.9305L2.03436 16.9918C1.81122 17.2239 1.69966 17.491 1.69966 17.7932C1.69966 18.0953 1.81122 18.3625 2.03436 18.5945L13.9668 31.0025C14.19 31.2357 14.4468 31.3524 14.7373 31.3524C15.0279 31.3524 15.2847 31.2363 15.5078 31.0043ZM14.2736 21.4445L19.7387 15.7699L16.681 12.5918L11.2265 18.2754L14.2736 21.4445ZM16.7177 32.286C16.1842 32.842 15.5241 33.12 14.7373 33.12C13.9506 33.12 13.2899 32.842 12.7553 32.286L0.80189 19.8545C0.267297 19.2985 0 18.6114 0 17.7932C0 16.9749 0.267297 16.2884 0.80189 15.7336L2.78221 13.6379C3.3168 13.0819 3.98156 12.8039 4.77647 12.8039C5.57139 12.8039 6.23556 13.0819 6.76899 13.6379L9.98352 16.981L15.4486 11.2973L12.234 7.96508C11.6995 7.40911 11.4322 6.71655 11.4322 5.88742C11.4322 5.05829 11.6995 4.36574 12.234 3.80976L14.2475 1.71397C14.7821 1.15799 15.4463 0.880005 16.24 0.880005C17.0338 0.880005 17.6985 1.15799 18.2343 1.71397L30.1981 14.1564C30.7327 14.7123 31 15.4037 31 16.2304C31 17.0571 30.7327 17.7479 30.1981 18.3026L28.1847 20.3984C27.6501 20.9544 26.9836 21.2324 26.1852 21.2324C25.3868 21.2324 24.7209 20.9544 24.1874 20.3984L20.9834 17.0535L15.5183 22.7371L18.7328 26.0803C19.2674 26.6362 19.5347 27.3276 19.5347 28.1543C19.5347 28.981 19.2674 29.6717 18.7328 30.2265L16.7177 32.286Z"/>
</mask>
<path d="M28.3782 12.2636L27.1788 11.0163L28.0156 10.0989C28.2399 9.86689 28.352 9.60521 28.352 9.31393C28.352 9.02386 28.2399 8.76218 28.0156 8.52892L23.6435 3.98381C23.4204 3.75175 23.1694 3.63572 22.8905 3.63572C22.6115 3.63572 22.3599 3.75175 22.1356 3.98381L21.2536 4.85403L20.0106 3.56138L20.9834 2.50442C21.4947 1.97262 22.1217 1.71457 22.8643 1.73029C23.6069 1.746 24.2339 2.01915 24.7453 2.54975L29.3945 7.38675C29.9058 7.91855 30.1615 8.56276 30.1615 9.31937C30.1615 10.076 29.9058 10.7202 29.3945 11.252L28.3782 12.2636ZM9.97306 31.4503C9.46171 31.9821 8.84228 32.248 8.11477 32.248C7.38726 32.248 6.76783 31.9821 6.25648 31.4503L1.74149 26.7547C1.2069 26.1987 0.939605 25.5074 0.939605 24.6806C0.939605 23.8539 1.2069 23.1632 1.74149 22.6084L2.57825 21.7364L3.82292 23.0308L2.97396 23.9011C2.75083 24.1343 2.63926 24.396 2.63926 24.6861C2.63926 24.9762 2.75083 25.2378 2.97396 25.4711L7.35646 30.0271C7.5796 30.2604 7.83062 30.377 8.10954 30.377C8.38846 30.377 8.64007 30.2604 8.86437 30.0271L9.70112 29.146L10.9458 30.4386L9.97306 31.4503ZM26.94 19.1148L28.9221 17.0535C29.1452 16.8214 29.2568 16.5543 29.2568 16.2522C29.2568 15.95 29.1452 15.6829 28.9221 15.4508L16.9896 3.04288C16.7665 2.80961 16.5096 2.69297 16.2191 2.69297C15.9285 2.69297 15.6717 2.809 15.4486 3.04106L13.4665 5.10241C13.2434 5.33447 13.1318 5.59614 13.1318 5.88742C13.1318 6.1775 13.2434 6.43917 13.4665 6.67244L25.4321 19.1148C25.6552 19.3469 25.9063 19.4629 26.1852 19.4629C26.4641 19.4629 26.7157 19.3469 26.94 19.1148ZM15.5078 31.0043L17.4899 28.9321C17.713 28.7 17.8246 28.4389 17.8246 28.1489C17.8246 27.8588 17.713 27.5971 17.4899 27.3638L5.53478 14.9305C5.31165 14.6984 5.06004 14.5824 4.77996 14.5824C4.50104 14.5824 4.25001 14.6984 4.02688 14.9305L2.03436 16.9918C1.81122 17.2239 1.69966 17.491 1.69966 17.7932C1.69966 18.0953 1.81122 18.3625 2.03436 18.5945L13.9668 31.0025C14.19 31.2357 14.4468 31.3524 14.7373 31.3524C15.0279 31.3524 15.2847 31.2363 15.5078 31.0043ZM14.2736 21.4445L19.7387 15.7699L16.681 12.5918L11.2265 18.2754L14.2736 21.4445ZM16.7177 32.286C16.1842 32.842 15.5241 33.12 14.7373 33.12C13.9506 33.12 13.2899 32.842 12.7553 32.286L0.80189 19.8545C0.267297 19.2985 0 18.6114 0 17.7932C0 16.9749 0.267297 16.2884 0.80189 15.7336L2.78221 13.6379C3.3168 13.0819 3.98156 12.8039 4.77647 12.8039C5.57139 12.8039 6.23556 13.0819 6.76899 13.6379L9.98352 16.981L15.4486 11.2973L12.234 7.96508C11.6995 7.40911 11.4322 6.71655 11.4322 5.88742C11.4322 5.05829 11.6995 4.36574 12.234 3.80976L14.2475 1.71397C14.7821 1.15799 15.4463 0.880005 16.24 0.880005C17.0338 0.880005 17.6985 1.15799 18.2343 1.71397L30.1981 14.1564C30.7327 14.7123 31 15.4037 31 16.2304C31 17.0571 30.7327 17.7479 30.1981 18.3026L28.1847 20.3984C27.6501 20.9544 26.9836 21.2324 26.1852 21.2324C25.3868 21.2324 24.7209 20.9544 24.1874 20.3984L20.9834 17.0535L15.5183 22.7371L18.7328 26.0803C19.2674 26.6362 19.5347 27.3276 19.5347 28.1543C19.5347 28.981 19.2674 29.6717 18.7328 30.2265L16.7177 32.286Z" fill="white"/>
<path d="M28.3782 12.2636L26.2157 14.343L28.3313 16.5432L30.4946 14.3898L28.3782 12.2636ZM27.1788 11.0163L24.9624 8.99461L23.069 11.0704L25.0163 13.0956L27.1788 11.0163ZM28.0156 10.0989L25.8585 8.01401L25.8283 8.0452L25.7991 8.07724L28.0156 10.0989ZM28.0156 8.52892L30.1781 6.44959L30.1777 6.44916L28.0156 8.52892ZM23.6435 3.98381L21.481 6.06313L21.4815 6.06356L23.6435 3.98381ZM22.1356 3.98381L24.2426 6.11943L24.2679 6.09438L24.2927 6.06874L22.1356 3.98381ZM21.2536 4.85403L19.0911 6.93336L21.1973 9.1238L23.3605 6.98965L21.2536 4.85403ZM20.0106 3.56138L17.8032 1.52985L15.8921 3.60642L17.8481 5.64071L20.0106 3.56138ZM20.9834 2.50442L18.8209 0.425098L18.7981 0.448747L18.7759 0.472888L20.9834 2.50442ZM24.7453 2.54975L26.9082 0.470826L26.9054 0.467965L24.7453 2.54975ZM29.3945 7.38675L27.2316 9.46567L27.232 9.46607L29.3945 7.38675ZM29.3945 11.252L31.5109 13.3782L31.5342 13.355L31.557 13.3313L29.3945 11.252ZM9.97306 31.4503L12.1356 33.5296L12.1356 33.5296L9.97306 31.4503ZM6.25648 31.4503L8.41898 29.3709L6.25648 31.4503ZM1.74149 26.7547L-0.421005 28.834H-0.421005L1.74149 26.7547ZM1.74149 22.6084L3.90174 24.6901L3.90616 24.6855L1.74149 22.6084ZM2.57825 21.7364L4.74075 19.6571L2.576 17.4057L0.413588 19.6593L2.57825 21.7364ZM3.82292 23.0308L5.97032 25.1258L7.9993 23.046L5.98542 20.9515L3.82292 23.0308ZM2.97396 23.9011L0.826566 21.8062L0.816269 21.8167L0.806076 21.8274L2.97396 23.9011ZM2.97396 25.4711L0.806067 27.5448L0.811878 27.5509L2.97396 25.4711ZM7.35646 30.0271L9.52436 27.9534L9.51855 27.9473L7.35646 30.0271ZM8.86437 30.0271L11.0269 32.1064L11.0333 32.0997L11.0397 32.093L8.86437 30.0271ZM9.70112 29.146L11.8622 27.0651L9.68613 24.8052L7.52576 27.0801L9.70112 29.146ZM10.9458 30.4386L13.1083 32.5179L15.109 30.4372L13.1068 28.3578L10.9458 30.4386ZM26.94 19.1148L29.0971 21.1998L29.1025 21.1942L26.94 19.1148ZM28.9221 17.0535L26.7596 14.9742L26.7596 14.9742L28.9221 17.0535ZM28.9221 15.4508L31.0846 13.3715L31.0844 13.3713L28.9221 15.4508ZM16.9896 3.04288L14.8217 5.11659L14.8272 5.12236L16.9896 3.04288ZM15.4486 3.04106L13.2861 0.961737V0.961737L15.4486 3.04106ZM13.4665 5.10241L15.629 7.18173V7.18173L13.4665 5.10241ZM13.4665 6.67244L11.2986 8.74615L11.3042 8.75192L13.4665 6.67244ZM25.4321 19.1148L27.5946 17.0355L27.5944 17.0354L25.4321 19.1148ZM15.5078 31.0043L17.6704 33.0836L17.6758 33.0779L15.5078 31.0043ZM17.4899 28.9321L15.3274 26.8527L15.3219 26.8584L17.4899 28.9321ZM17.4899 27.3638L19.6578 25.2901L19.6524 25.2845L17.4899 27.3638ZM5.53478 14.9305L7.69728 12.8512L5.53478 14.9305ZM4.02688 14.9305L6.18391 17.0155L6.18938 17.0098L4.02688 14.9305ZM2.03436 16.9918L-0.122672 14.9068L-0.128141 14.9125L2.03436 16.9918ZM2.03436 18.5945L-0.128141 20.6738L-0.127989 20.674L2.03436 18.5945ZM13.9668 31.0025L16.1347 28.9287L16.1292 28.923L13.9668 31.0025ZM14.2736 21.4445L12.1111 23.5238L14.2719 25.771L16.4345 23.5255L14.2736 21.4445ZM19.7387 15.7699L21.8995 17.851L23.9027 15.771L21.9006 13.69L19.7387 15.7699ZM16.681 12.5918L18.8429 10.5118L16.6784 8.26194L14.5166 10.5145L16.681 12.5918ZM11.2265 18.2754L9.06196 16.1982L7.06652 18.2774L9.06395 20.3548L11.2265 18.2754ZM16.7177 32.286L14.5734 30.1879L14.5631 30.1985L14.5529 30.2091L16.7177 32.286ZM12.7553 32.286L10.5928 34.3654L12.7553 32.286ZM0.80189 19.8545L2.96439 17.7752L0.80189 19.8545ZM0.80189 15.7336L2.96213 17.8153L2.97233 17.8047L2.98243 17.794L0.80189 15.7336ZM2.78221 13.6379L0.619708 11.5585L0.610647 11.568L0.601668 11.5775L2.78221 13.6379ZM6.76899 13.6379L4.60423 15.7148L4.60649 15.7172L6.76899 13.6379ZM9.98352 16.981L7.82102 19.0603L9.98352 21.3093L12.146 19.0603L9.98352 16.981ZM15.4486 11.2973L17.6111 13.3766L19.6137 11.2939L17.6077 9.21447L15.4486 11.2973ZM12.234 7.96508L10.0715 10.0444L10.0749 10.0479L12.234 7.96508ZM12.234 3.80976L14.3965 5.88909L14.3974 5.88815L12.234 3.80976ZM14.2475 1.71397L12.085 -0.365356L12.0841 -0.364421L14.2475 1.71397ZM18.2343 1.71397L20.3968 -0.365357L20.3945 -0.367701L18.2343 1.71397ZM30.1981 14.1564L28.0356 16.2357L30.1981 14.1564ZM30.1981 18.3026L28.0379 16.2209L28.0347 16.2242L30.1981 18.3026ZM28.1847 20.3984L30.3472 22.4777L30.3481 22.4768L28.1847 20.3984ZM24.1874 20.3984L22.021 22.4736L22.0227 22.4754L24.1874 20.3984ZM20.9834 17.0535L23.1498 14.9783L20.9875 12.7209L18.8209 14.9742L20.9834 17.0535ZM15.5183 22.7371L13.3558 20.6578L11.3565 22.7371L13.3558 24.8165L15.5183 22.7371ZM18.7328 26.0803L20.8953 24.0009L18.7328 26.0803ZM18.7328 30.2265L20.8771 32.3246L20.8851 32.3164L20.8931 32.3082L18.7328 30.2265ZM28.3782 12.2636L30.5407 10.1843L29.3413 8.93698L27.1788 11.0163L25.0163 13.0956L26.2157 14.343L28.3782 12.2636ZM27.1788 11.0163L29.3953 13.038L30.232 12.1206L28.0156 10.0989L25.7991 8.07724L24.9624 8.99461L27.1788 11.0163ZM28.0156 10.0989L30.1727 12.1839C30.874 11.4583 31.352 10.4703 31.352 9.31393H28.352H25.352C25.352 9.06292 25.4028 8.79822 25.5105 8.54685C25.6159 8.30099 25.7509 8.12535 25.8585 8.01401L28.0156 10.0989ZM28.352 9.31393H31.352C31.352 8.15626 30.8722 7.17143 30.1781 6.44959L28.0156 8.52892L25.8531 10.6082C25.7484 10.4993 25.6151 10.3259 25.5105 10.0819C25.4034 9.83213 25.352 9.5673 25.352 9.31393H28.352ZM28.0156 8.52892L30.1777 6.44916L25.8056 1.90405L23.6435 3.98381L21.4815 6.06356L25.8535 10.6087L28.0156 8.52892ZM23.6435 3.98381L25.806 1.90448C25.1124 1.18307 24.1131 0.635716 22.8905 0.635716V3.63572V6.63572C22.5991 6.63572 22.3017 6.57188 22.0292 6.44591C21.7653 6.32393 21.5863 6.17259 21.481 6.06313L23.6435 3.98381ZM22.8905 3.63572V0.635716C21.6689 0.635716 20.6714 1.18199 19.9785 1.89887L22.1356 3.98381L24.2927 6.06874C24.1886 6.17643 24.011 6.32613 23.7489 6.44701C23.4781 6.5719 23.1818 6.63572 22.8905 6.63572V3.63572ZM22.1356 3.98381L20.0287 1.84818L19.1466 2.71841L21.2536 4.85403L23.3605 6.98965L24.2426 6.11943L22.1356 3.98381ZM21.2536 4.85403L23.4161 2.7747L22.1731 1.48206L20.0106 3.56138L17.8481 5.64071L19.0911 6.93336L21.2536 4.85403ZM20.0106 3.56138L22.2181 5.59292L23.1908 4.53596L20.9834 2.50442L18.7759 0.472888L17.8032 1.52985L20.0106 3.56138ZM20.9834 2.50442L23.1459 4.58375C23.1388 4.59105 23.083 4.64342 22.9789 4.68626C22.9313 4.70587 22.8873 4.71766 22.8517 4.72395C22.8169 4.73011 22.7983 4.72956 22.8008 4.72962L22.8643 1.73029L22.9278 -1.26904C21.3537 -1.30235 19.9176 -0.715515 18.8209 0.425098L20.9834 2.50442ZM22.8643 1.73029L22.8008 4.72962C22.8152 4.72992 22.768 4.72982 22.6933 4.69726C22.6594 4.68251 22.631 4.66579 22.6097 4.65075C22.5888 4.63602 22.5811 4.62734 22.5851 4.63153L24.7453 2.54975L26.9054 0.467965C25.8389 -0.638633 24.4559 -1.23671 22.9278 -1.26904L22.8643 1.73029ZM24.7453 2.54975L22.5824 4.62867L27.2316 9.46567L29.3945 7.38675L31.5574 5.30782L26.9081 0.470827L24.7453 2.54975ZM29.3945 7.38675L27.232 9.46607C27.2361 9.47037 27.2292 9.4638 27.2173 9.44557C27.2052 9.42698 27.1922 9.40293 27.1813 9.37543C27.1705 9.34802 27.1648 9.32548 27.1623 9.31164C27.1599 9.29832 27.1615 9.29965 27.1615 9.31937H30.1615H33.1615C33.1615 7.80952 32.6208 6.41377 31.557 5.30742L29.3945 7.38675ZM30.1615 9.31937H27.1615C27.1615 9.33908 27.1599 9.34042 27.1623 9.3271C27.1648 9.31326 27.1705 9.29072 27.1813 9.26331C27.1922 9.23581 27.2052 9.21176 27.2173 9.19317C27.2292 9.17494 27.2361 9.16837 27.232 9.17267L29.3945 11.252L31.557 13.3313C32.6208 12.225 33.1615 10.8292 33.1615 9.31937H30.1615ZM29.3945 11.252L27.2781 9.12579L26.2617 10.1374L28.3782 12.2636L30.4946 14.3898L31.5109 13.3782L29.3945 11.252ZM9.97306 31.4503L7.81056 29.3709C7.80632 29.3754 7.84949 29.3313 7.9416 29.2918C8.03461 29.2519 8.10426 29.248 8.11477 29.248V32.248V35.248C9.67123 35.248 11.0676 34.6403 12.1356 33.5296L9.97306 31.4503ZM8.11477 32.248V29.248C8.12529 29.248 8.19494 29.2519 8.28794 29.2918C8.38005 29.3313 8.42323 29.3754 8.41898 29.3709L6.25648 31.4503L4.09398 33.5296C5.16194 34.6403 6.55831 35.248 8.11477 35.248V32.248ZM6.25648 31.4503L8.41898 29.3709L3.90399 24.6754L1.74149 26.7547L-0.421005 28.834L4.09398 33.5296L6.25648 31.4503ZM1.74149 26.7547L3.90399 24.6754C3.8998 24.671 3.90503 24.6758 3.91417 24.69C3.9185 24.6967 3.923 24.7045 3.92733 24.713C3.93167 24.7215 3.9353 24.7298 3.93822 24.7373C3.94437 24.7533 3.94525 24.7606 3.94427 24.7551C3.9432 24.749 3.93961 24.7254 3.93961 24.6806H0.939605H-2.06039C-2.06039 26.2214 -1.53398 27.6765 -0.421005 28.834L1.74149 26.7547ZM0.939605 24.6806H3.93961C3.93961 24.6358 3.9432 24.6124 3.94424 24.6065C3.94517 24.6012 3.94422 24.6089 3.9379 24.6252C3.9349 24.633 3.93116 24.6415 3.9267 24.6502C3.92224 24.659 3.91759 24.667 3.91309 24.674C3.90361 24.6887 3.89798 24.694 3.90173 24.6901L1.74149 22.6084L-0.418743 20.5267C-1.53388 21.684 -2.06039 23.1399 -2.06039 24.6806H0.939605ZM1.74149 22.6084L3.90616 24.6855L4.74291 23.8135L2.57825 21.7364L0.413588 19.6593L-0.423166 20.5313L1.74149 22.6084ZM2.57825 21.7364L0.41575 23.8157L1.66042 25.1102L3.82292 23.0308L5.98542 20.9515L4.74075 19.6571L2.57825 21.7364ZM3.82292 23.0308L1.67552 20.9359L0.826566 21.8062L2.97396 23.9011L5.12136 25.996L5.97032 25.1258L3.82292 23.0308ZM2.97396 23.9011L0.806076 21.8274C0.114431 22.5504 -0.360738 23.5335 -0.360738 24.6861H2.63926H5.63926C5.63926 24.9373 5.58857 25.2003 5.48257 25.4489C5.37896 25.6919 5.2466 25.8653 5.14185 25.9748L2.97396 23.9011ZM2.63926 24.6861H-0.360738C-0.360738 25.8386 0.114423 26.8217 0.806076 27.5448L2.97396 25.4711L5.14185 23.3974C5.2466 23.5069 5.37897 23.6803 5.48258 23.9233C5.58857 24.1719 5.63926 24.4349 5.63926 24.6861H2.63926ZM2.97396 25.4711L0.811878 27.5509L5.19438 32.1068L7.35646 30.0271L9.51855 27.9473L5.13605 23.3913L2.97396 25.4711ZM7.35646 30.0271L5.18858 32.1008C5.8806 32.8242 6.88132 33.377 8.10954 33.377V30.377V27.377C8.40329 27.377 8.70255 27.4417 8.97618 27.5688C9.24094 27.6919 9.41984 27.8441 9.52435 27.9534L7.35646 30.0271ZM8.10954 30.377V33.377C9.33663 33.377 10.3356 32.8253 11.0269 32.1064L8.86437 30.0271L6.70187 27.9478C6.80523 27.8403 6.98275 27.6896 7.24575 27.5677C7.51765 27.4417 7.81581 27.377 8.10954 27.377V30.377ZM8.86437 30.0271L11.0397 32.093L11.8765 31.2119L9.70112 29.146L7.52576 27.0801L6.68901 27.9612L8.86437 30.0271ZM9.70112 29.146L7.54008 31.2268L8.78475 32.5195L10.9458 30.4386L13.1068 28.3578L11.8622 27.0651L9.70112 29.146ZM10.9458 30.4386L8.78329 28.3593L7.81056 29.3709L9.97306 31.4503L12.1356 33.5296L13.1083 32.5179L10.9458 30.4386ZM26.94 19.1148L29.1025 21.1942L31.0846 19.1328L28.9221 17.0535L26.7596 14.9742L24.7775 17.0355L26.94 19.1148ZM28.9221 17.0535L31.0846 19.1328C31.8063 18.3822 32.2568 17.3838 32.2568 16.2522H29.2568H26.2568C26.2568 16.024 26.301 15.7716 26.4049 15.5229C26.5073 15.2776 26.6426 15.0958 26.7596 14.9742L28.9221 17.0535ZM29.2568 16.2522H32.2568C32.2568 15.1206 31.8063 14.1221 31.0846 13.3715L28.9221 15.4508L26.7596 17.5302C26.6426 17.4085 26.5073 17.2267 26.4049 16.9814C26.301 16.7327 26.2568 16.4803 26.2568 16.2522H29.2568ZM28.9221 15.4508L31.0844 13.3713L19.1519 0.963392L16.9896 3.04288L14.8272 5.12236L26.7597 17.5303L28.9221 15.4508ZM16.9896 3.04288L19.1575 0.969168C18.4377 0.216739 17.4236 -0.307027 16.2191 -0.307027V2.69297V5.69297C15.9496 5.69297 15.6622 5.63597 15.3892 5.51199C15.1228 5.391 14.9367 5.2368 14.8217 5.11658L16.9896 3.04288ZM16.2191 2.69297V-0.307027C15.0201 -0.307027 14.0074 0.211558 13.2861 0.961737L15.4486 3.04106L17.6111 5.12039C17.4953 5.24078 17.3091 5.39402 17.0437 5.51395C16.7718 5.63677 16.4862 5.69297 16.2191 5.69297V2.69297ZM15.4486 3.04106L13.2861 0.961737L11.304 3.02308L13.4665 5.10241L15.629 7.18173L17.6111 5.12039L15.4486 3.04106ZM13.4665 5.10241L11.304 3.02308C10.6052 3.74987 10.1318 4.73623 10.1318 5.88742H13.1318H16.1318C16.1318 6.13623 16.0818 6.39912 15.9751 6.64931C15.8707 6.89418 15.7366 7.06979 15.629 7.18173L13.4665 5.10241ZM13.1318 5.88742H10.1318C10.1318 7.03996 10.607 8.02308 11.2986 8.74614L13.4665 6.67244L15.6344 4.59873C15.7392 4.70824 15.8715 4.88162 15.9751 5.12463C16.0811 5.37324 16.1318 5.63625 16.1318 5.88742H13.1318ZM13.4665 6.67244L11.3042 8.75192L23.2697 21.1943L25.4321 19.1148L27.5944 17.0354L15.6289 4.59295L13.4665 6.67244ZM25.4321 19.1148L23.2696 21.1942C23.9633 21.9156 24.9625 22.4629 26.1852 22.4629V19.4629V16.4629C26.4765 16.4629 26.7739 16.5268 27.0464 16.6527C27.3103 16.7747 27.4893 16.926 27.5946 17.0355L25.4321 19.1148ZM26.1852 19.4629V22.4629C27.4067 22.4629 28.4042 21.9167 29.0971 21.1998L26.94 19.1148L24.7829 17.0299C24.887 16.9222 25.0646 16.7725 25.3268 16.6516C25.5976 16.5267 25.8938 16.4629 26.1852 16.4629V19.4629ZM15.5078 31.0043L17.6758 33.0779L19.6579 31.0057L17.4899 28.9321L15.3219 26.8584L13.3399 28.9306L15.5078 31.0043ZM17.4899 28.9321L19.6524 31.0114C20.3486 30.2873 20.8246 29.3022 20.8246 28.1489H17.8246H14.8246C14.8246 27.8977 14.8753 27.6336 14.9823 27.3833C15.0869 27.1385 15.2208 26.9636 15.3274 26.8527L17.4899 28.9321ZM17.8246 28.1489H20.8246C20.8246 26.9963 20.3494 26.0132 19.6578 25.2901L17.4899 27.3638L15.322 29.4375C15.2173 29.328 15.0849 29.1547 14.9813 28.9116C14.8753 28.663 14.8246 28.4 14.8246 28.1489H17.8246ZM17.4899 27.3638L19.6524 25.2845L7.69728 12.8512L5.53478 14.9305L3.37228 17.0098L15.3274 29.4432L17.4899 27.3638ZM5.53478 14.9305L7.69728 12.8512C7.00078 12.1268 6.00024 11.5824 4.77996 11.5824V14.5824V17.5824C4.49108 17.5824 4.19491 17.5194 3.92241 17.3937C3.65833 17.2719 3.47858 17.1204 3.37228 17.0098L5.53478 14.9305ZM4.77996 14.5824V11.5824C3.55728 11.5824 2.55804 12.1298 1.86438 12.8512L4.02688 14.9305L6.18938 17.0098C6.08413 17.1193 5.9051 17.2706 5.64121 17.3926C5.36868 17.5186 5.07131 17.5824 4.77996 17.5824V14.5824ZM4.02688 14.9305L1.86986 12.8455L-0.122664 14.9068L2.03436 16.9918L4.19138 19.0769L6.1839 17.0155L4.02688 14.9305ZM2.03436 16.9918L-0.128141 14.9125C-0.849897 15.6631 -1.30034 16.6616 -1.30034 17.7932H1.69966H4.69966C4.69966 18.0213 4.65546 18.2737 4.55157 18.5225C4.44911 18.7678 4.3138 18.9496 4.19686 19.0712L2.03436 16.9918ZM1.69966 17.7932H-1.30034C-1.30034 18.9248 -0.849893 19.9232 -0.128141 20.6738L2.03436 18.5945L4.19686 16.5152C4.31379 16.6368 4.44911 16.8186 4.55156 17.0639C4.65546 17.3126 4.69966 17.565 4.69966 17.7932H1.69966ZM2.03436 18.5945L-0.127989 20.674L11.8045 33.0819L13.9668 31.0025L16.1292 28.923L4.19671 16.515L2.03436 18.5945ZM13.9668 31.0025L11.7989 33.0762C12.5187 33.8286 13.5329 34.3524 14.7373 34.3524V31.3524V28.3524C15.0068 28.3524 15.2942 28.4094 15.5672 28.5333C15.8337 28.6543 16.0197 28.8085 16.1347 28.9288L13.9668 31.0025ZM14.7373 31.3524V34.3524C15.9363 34.3524 16.949 33.8338 17.6703 33.0836L15.5078 31.0043L13.3453 28.9249C13.4611 28.8046 13.6473 28.6513 13.9128 28.5314C14.1846 28.4086 14.4702 28.3524 14.7373 28.3524V31.3524ZM14.2736 21.4445L16.4345 23.5255L21.8995 17.851L19.7387 15.7699L17.5778 13.6889L12.1128 19.3634L14.2736 21.4445ZM19.7387 15.7699L21.9006 13.69L18.8429 10.5118L16.681 12.5918L14.5191 14.6717L17.5768 17.8499L19.7387 15.7699ZM16.681 12.5918L14.5166 10.5145L9.06196 16.1982L11.2265 18.2754L13.3909 20.3527L18.8455 14.669L16.681 12.5918ZM11.2265 18.2754L9.06395 20.3548L12.1111 23.5238L14.2736 21.4445L16.4361 19.3652L13.389 16.1961L11.2265 18.2754ZM16.7177 32.286L14.5529 30.2091C14.5476 30.2146 14.5547 30.2063 14.5755 30.1917C14.5968 30.1769 14.6251 30.1606 14.6582 30.1467C14.6911 30.1328 14.7192 30.1253 14.7376 30.1218C14.7555 30.1183 14.7569 30.12 14.7373 30.12V33.12V36.12C16.3218 36.12 17.7699 35.5226 18.8824 34.363L16.7177 32.286ZM14.7373 33.12V30.12C14.7178 30.12 14.7191 30.1183 14.7367 30.1217C14.755 30.1252 14.7826 30.1326 14.8152 30.1463C14.8479 30.1601 14.8756 30.176 14.8965 30.1906C14.9168 30.2048 14.9235 30.2126 14.9178 30.2067L12.7553 32.286L10.5928 34.3654C11.7057 35.5228 13.153 36.12 14.7373 36.12V33.12ZM12.7553 32.286L14.9178 30.2067L2.96439 17.7752L0.80189 19.8545L-1.36061 21.9339L10.5928 34.3654L12.7553 32.286ZM0.80189 19.8545L2.96439 17.7752C2.95883 17.7694 2.96328 17.7731 2.97205 17.7867C2.981 17.8006 2.98969 17.8174 2.99637 17.8346C3.00296 17.8515 3.00442 17.8606 3.00392 17.8578C3.00331 17.8544 3 17.8341 3 17.7932H0H-3C-3 19.3347 -2.4676 20.7826 -1.36061 21.9339L0.80189 19.8545ZM0 17.7932H3C3 17.7522 3.00331 17.7321 3.00388 17.7289C3.00434 17.7263 3.0028 17.7357 2.99605 17.7531C2.9892 17.7707 2.98026 17.7879 2.97097 17.8023C2.96185 17.8164 2.95701 17.8206 2.96213 17.8153L0.80189 15.7336L-1.35835 13.652C-2.46749 14.803 -3 16.2517 -3 17.7932H0ZM0.80189 15.7336L2.98243 17.794L4.96275 15.6983L2.78221 13.6379L0.601668 11.5775L-1.37865 13.6732L0.80189 15.7336ZM2.78221 13.6379L4.94471 15.7172C4.94904 15.7127 4.94131 15.7214 4.92025 15.7361C4.89874 15.751 4.87094 15.7668 4.83914 15.7801C4.80748 15.7934 4.78152 15.8001 4.76594 15.803C4.75102 15.8059 4.75305 15.8039 4.77647 15.8039V12.8039V9.80389C3.19363 9.80389 1.73911 10.3944 0.619708 11.5585L2.78221 13.6379ZM4.77647 12.8039V15.8039C4.79991 15.8039 4.80182 15.8059 4.78668 15.803C4.77087 15.8 4.74459 15.7932 4.71251 15.7798C4.68029 15.7663 4.65203 15.7502 4.63004 15.7349C4.60849 15.7199 4.60032 15.7108 4.60423 15.7148L6.76899 13.6379L8.93375 11.5609C7.81469 10.3945 6.35942 9.80389 4.77647 9.80389V12.8039ZM6.76899 13.6379L4.60649 15.7172L7.82102 19.0603L9.98352 16.981L12.146 14.9016L8.93149 11.5585L6.76899 13.6379ZM9.98352 16.981L12.146 19.0603L17.6111 13.3766L15.4486 11.2973L13.2861 9.21799L7.82102 14.9016L9.98352 16.981ZM15.4486 11.2973L17.6077 9.21447L14.3932 5.88224L12.234 7.96508L10.0749 10.0479L13.2895 13.3802L15.4486 11.2973ZM12.234 7.96508L14.3965 5.88576C14.3927 5.8818 14.3982 5.88689 14.4074 5.90127C14.4118 5.90809 14.4163 5.91589 14.4206 5.92439C14.425 5.9329 14.4285 5.94107 14.4314 5.94848C14.4374 5.9641 14.4381 5.97093 14.437 5.96463C14.4358 5.95777 14.4322 5.9333 14.4322 5.88742H11.4322H8.43215C8.43215 7.42795 8.95688 8.88516 10.0715 10.0444L12.234 7.96508ZM11.4322 5.88742H14.4322C14.4322 5.84154 14.4358 5.81708 14.437 5.81021C14.4381 5.80392 14.4374 5.81074 14.4314 5.82637C14.4285 5.83377 14.425 5.84194 14.4206 5.85045C14.4163 5.85896 14.4118 5.86675 14.4074 5.87357C14.3982 5.88795 14.3927 5.89305 14.3965 5.88909L12.234 3.80976L10.0715 1.73043C8.95688 2.88968 8.43215 4.34689 8.43215 5.88742H11.4322ZM12.234 3.80976L14.3974 5.88815L16.4109 3.79236L14.2475 1.71397L12.0841 -0.364421L10.0706 1.73137L12.234 3.80976ZM14.2475 1.71397L16.41 3.7933C16.4145 3.78859 16.4069 3.7972 16.386 3.81179C16.3646 3.82669 16.3368 3.84251 16.3048 3.85588C16.273 3.86918 16.2468 3.87599 16.2309 3.87904C16.2156 3.88195 16.2171 3.88 16.24 3.88V0.880005V-2.12C14.657 -2.12 13.2035 -1.52858 12.085 -0.365356L14.2475 1.71397ZM16.24 0.880005V3.88C16.2629 3.88 16.2645 3.88195 16.2495 3.87908C16.2337 3.87608 16.2078 3.86936 16.1765 3.85624C16.145 3.84306 16.1176 3.8275 16.0967 3.81295C16.0762 3.79872 16.0691 3.79051 16.074 3.79564L18.2343 1.71397L20.3945 -0.367701C19.2757 -1.52875 17.823 -2.12 16.24 -2.12V0.880005ZM18.2343 1.71397L16.0718 3.7933L28.0356 16.2357L30.1981 14.1564L32.3606 12.077L20.3968 -0.365356L18.2343 1.71397ZM30.1981 14.1564L28.0356 16.2357C28.0398 16.2401 28.0346 16.2353 28.0254 16.2211C28.0211 16.2143 28.0166 16.2066 28.0123 16.198C28.0079 16.1895 28.0043 16.1813 28.0014 16.1737C27.9952 16.1578 27.9944 16.1505 27.9953 16.156C27.9964 16.1621 28 16.1856 28 16.2304H31H34C34 14.6897 33.4736 13.2345 32.3606 12.077L30.1981 14.1564ZM31 16.2304H28C28 16.2752 27.9964 16.2986 27.9954 16.3045C27.9944 16.3098 27.9954 16.3021 28.0017 16.2858C28.0047 16.2781 28.0084 16.2696 28.0129 16.2608C28.0174 16.2521 28.022 16.244 28.0265 16.2371C28.036 16.2223 28.0416 16.2171 28.0379 16.2209L30.1981 18.3026L32.3583 20.3843C33.4735 19.2271 34 17.7711 34 16.2304H31ZM30.1981 18.3026L28.0347 16.2242L26.0213 18.32L28.1847 20.3984L30.3481 22.4768L32.3615 20.381L30.1981 18.3026ZM28.1847 20.3984L26.0222 18.3191C26.0184 18.323 26.0266 18.3139 26.048 18.299C26.0698 18.2839 26.0976 18.2682 26.129 18.2551C26.1603 18.242 26.1855 18.2356 26.1999 18.2329C26.2137 18.2302 26.2103 18.2324 26.1852 18.2324V21.2324V24.2324C27.7674 24.2324 29.225 23.6448 30.3472 22.4777L28.1847 20.3984ZM26.1852 21.2324V18.2324C26.1601 18.2324 26.1568 18.2302 26.1707 18.2329C26.1854 18.2357 26.2109 18.2422 26.2426 18.2554C26.2745 18.2687 26.3027 18.2847 26.325 18.3002C26.3469 18.3154 26.3555 18.3249 26.3522 18.3214L24.1874 20.3984L22.0227 22.4754C23.1445 23.6446 24.6029 24.2324 26.1852 24.2324V21.2324ZM24.1874 20.3984L26.3539 18.3232L23.1498 14.9783L20.9834 17.0535L18.8169 19.1287L22.021 22.4736L24.1874 20.3984ZM20.9834 17.0535L18.8209 14.9742L13.3558 20.6578L15.5183 22.7371L17.6808 24.8165L23.1459 19.1328L20.9834 17.0535ZM15.5183 22.7371L13.3558 24.8165L16.5703 28.1596L18.7328 26.0803L20.8953 24.0009L17.6808 20.6578L15.5183 22.7371ZM18.7328 26.0803L16.5703 28.1596C16.5745 28.1639 16.5693 28.1592 16.5602 28.1449C16.5558 28.1382 16.5513 28.1304 16.547 28.1219C16.5427 28.1134 16.539 28.1051 16.5361 28.0976C16.53 28.0817 16.5291 28.0743 16.5301 28.0799C16.5311 28.086 16.5347 28.1095 16.5347 28.1543H19.5347H22.5347C22.5347 26.6136 22.0083 25.1584 20.8953 24.0009L18.7328 26.0803ZM19.5347 28.1543H16.5347C16.5347 28.1991 16.5311 28.2225 16.5301 28.2284C16.5292 28.2337 16.5301 28.226 16.5364 28.2097C16.5394 28.202 16.5432 28.1935 16.5476 28.1847C16.5521 28.1759 16.5567 28.1679 16.5612 28.1609C16.5707 28.1462 16.5763 28.1409 16.5726 28.1448L18.7328 30.2265L20.8931 32.3082C22.0082 31.151 22.5347 29.695 22.5347 28.1543H19.5347ZM18.7328 30.2265L16.5886 28.1284L14.5734 30.1879L16.7177 32.286L18.8619 34.3842L20.8771 32.3246L18.7328 30.2265Z" fill="black" fill-opacity="0.5" mask="url(#path-1-inside-1_17_86)"/>
</svg>
